<?xml version="1.0" encoding="UTF-8" standalone="no"?>
<svg
   xmlns:dc="http://purl.org/dc/elements/1.1/"
   xmlns:cc="http://creativecommons.org/ns#"
   xmlns:rdf="http://www.w3.org/1999/02/22-rdf-syntax-ns#"
   xmlns:svg="http://www.w3.org/2000/svg"
   xmlns="http://www.w3.org/2000/svg"
   xmlns:xlink="http://www.w3.org/1999/xlink"
   xmlns:sodipodi="http://sodipodi.sourceforge.net/DTD/sodipodi-0.dtd"
   xmlns:inkscape="http://www.inkscape.org/namespaces/inkscape"
   width="500"
   height="500"
   viewBox="0 0 132.29166 132.29167"
   version="1.1"
   id="svg8"
   inkscape:version="1.0.1 (c497b03c, 2020-09-10)"
   sodipodi:docname="draw-cards.svg"
   inkscape:export-filename="/Users/richard/personal/du-meine-gute/design/generic-icons/draw-cards/draw-cards.png"
   inkscape:export-xdpi="96"
   inkscape:export-ydpi="96">
  <defs
     id="defs2">
    <rect
       x="88.125649"
       y="34.145835"
       width="21.979819"
       height="24"
       id="rect816" />
    <linearGradient
       inkscape:collect="always"
       id="linearGradient754">
      <stop
         style="stop-color:#c87137;stop-opacity:1"
         offset="0"
         id="stop750" />
      <stop
         style="stop-color:#e9c6af;stop-opacity:1"
         offset="1"
         id="stop752" />
    </linearGradient>
    <linearGradient
       inkscape:collect="always"
       xlink:href="#linearGradient754"
       id="linearGradient756"
       x1="71.640785"
       y1="44.145836"
       x2="93.620605"
       y2="24.145836"
       gradientUnits="userSpaceOnUse"
       gradientTransform="matrix(1.0359647,0,0,1.0359647,-8.5438195,-12.796467)" />
    <linearGradient
       inkscape:collect="always"
       xlink:href="#linearGradient754"
       id="linearGradient2363"
       gradientUnits="userSpaceOnUse"
       gradientTransform="matrix(1.0483438,0,0,1.0483438,-22.45101,12.27017)"
       x1="71.640785"
       y1="44.145836"
       x2="93.620605"
       y2="24.145836" />
    <linearGradient
       inkscape:collect="always"
       xlink:href="#linearGradient754"
       id="linearGradient2367"
       gradientUnits="userSpaceOnUse"
       gradientTransform="matrix(1.0483438,0,0,1.0483438,0.96897886,10.98306)"
       x1="71.640785"
       y1="44.145836"
       x2="93.620605"
       y2="24.145836" />
    <linearGradient
       inkscape:collect="always"
       xlink:href="#linearGradient754"
       id="linearGradient2374"
       gradientUnits="userSpaceOnUse"
       gradientTransform="matrix(1.0483438,0,0,1.0483438,-43.92627,8.1590828)"
       x1="71.640785"
       y1="44.145836"
       x2="93.620605"
       y2="24.145836" />
  </defs>
  <sodipodi:namedview
     id="base"
     pagecolor="#ffffff"
     bordercolor="#666666"
     borderopacity="1.0"
     inkscape:pageopacity="0.0"
     inkscape:pageshadow="2"
     inkscape:zoom="1.3222744"
     inkscape:cx="178.87226"
     inkscape:cy="267.26759"
     inkscape:document-units="px"
     inkscape:current-layer="layer1"
     inkscape:document-rotation="0"
     showgrid="true"
     units="px"
     inkscape:window-width="1792"
     inkscape:window-height="1049"
     inkscape:window-x="0"
     inkscape:window-y="23"
     inkscape:window-maximized="1">
    <inkscape:grid
       type="axonomgrid"
       id="grid10"
       gridanglex="20"
       gridanglez="20"
       spacingy="0.99999999"
       empspacing="4"
       originx="66.14583"
       originy="66.145835" />
  </sodipodi:namedview>
  <metadata
     id="metadata5">
    <rdf:RDF>
      <cc:Work
         rdf:about="">
        <dc:format>image/svg+xml</dc:format>
        <dc:type
           rdf:resource="http://purl.org/dc/dcmitype/StillImage" />
        <dc:title></dc:title>
      </cc:Work>
    </rdf:RDF>
  </metadata>
  <g
     inkscape:label="Layer 1"
     inkscape:groupmode="layer"
     id="layer1">
    <g
       id="g2400"
       transform="matrix(0.79560631,0,0,0.79560631,-1.026737,11.020834)">
      <rect
         style="fill:url(#linearGradient2374);fill-opacity:1;stroke:#000000;stroke-width:1.38688;stroke-linecap:round;stroke-linejoin:round"
         id="rect748"
         width="57.606018"
         height="92.254265"
         x="-3.3857062"
         y="31.37553"
         ry="4.1933789"
         transform="rotate(-20)" />
      <rect
         style="fill:url(#linearGradient2363);fill-opacity:1;stroke:#000000;stroke-width:1.38688;stroke-linecap:round;stroke-linejoin:round"
         id="rect2361"
         width="57.606018"
         height="92.254265"
         x="18.08955"
         y="35.486618"
         ry="4.1933789"
         transform="rotate(-10)" />
      <rect
         style="fill:url(#linearGradient2367);fill-opacity:1;stroke:#000000;stroke-width:1.38688;stroke-linecap:round;stroke-linejoin:round"
         id="rect2365"
         width="57.606018"
         height="92.254265"
         x="41.509541"
         y="34.199509"
         ry="4.1933789" />
    </g>
    <g
       aria-label="+"
       transform="matrix(3.9421823,0,0,3.9421823,-287.17546,-106.07051)"
       id="text814"
       style="font-style:normal;font-weight:normal;font-size:10.5833px;line-height:1.95;font-family:sans-serif;white-space:pre;shape-inside:url(#rect816);fill:#000000;fill-opacity:1;stroke:none">
      <path
         id="path820"
         style="font-style:normal;font-variant:normal;font-weight:normal;font-stretch:normal;font-family:Grandstander;-inkscape-font-specification:Grandstander;text-align:center;text-anchor:middle;fill:none;stroke:#000000;stroke-width:8;stroke-miterlimit:4;stroke-dasharray:none"
         d="m 410.01562,199.48047 c -0.44119,0 -1.32284,0.0377 -2.64648,0.11133 h -4.63281 c -1.76486,0 -3.53007,0.0357 -5.29492,0.10937 -1.76484,0.0734 -3.34501,0.14705 -4.74219,0.22071 -1.39718,0 -2.35442,0.0377 -2.86914,0.11132 0.66189,3.97091 1.2509,8.5661 1.76562,13.78711 0.58824,5.22101 1.10371,10.77342 1.54492,16.65625 0.32629,3.72918 0.59241,7.51811 0.83008,11.33594 -2.06493,0.0166 -4.1424,0.0254 -6.23632,0.0254 -4.70626,0 -9.26562,-0.0357 -13.67774,-0.10937 -4.3386,-0.0737 -8.23525,-0.18501 -11.69141,-0.33204 -3.38262,-0.22053 -6.10312,-0.44143 -8.16211,-0.6621 10e-6,0.66182 0.0357,1.80214 0.10938,3.41992 0.0736,1.61777 0.18501,3.383 0.33203,5.29492 0.14717,1.91192 0.29438,3.71298 0.44141,5.4043 0.22067,1.69131 0.43962,2.9789 0.66015,3.86132 3.60324,0.44122 7.90585,0.84519 12.90625,1.21289 5.07395,0.36757 10.40546,0.66214 15.99414,0.88282 3.41249,0.0886 6.77116,0.14057 10.10352,0.17578 0.0271,1.79125 0.0449,3.57376 0.0449,5.33789 0,6.17696 -0.14722,12.17116 -0.4414,17.98047 -0.29419,5.80929 -0.73598,11.06718 -1.32422,15.77343 0.88242,0 2.17001,0.0357 3.86132,0.10938 1.76486,0.0734 3.63956,0.14705 5.625,0.2207 1.98547,0 3.82432,0.0377 5.51563,0.11133 1.69125,0 2.86741,-0.0377 3.5293,-0.11133 0.95598,-6.98585 1.69035,-14.44879 2.20507,-22.39062 0.37502,-5.78611 0.6111,-11.51263 0.7129,-17.18164 6.23784,-0.17662 12.00094,-0.46755 17.15625,-0.90821 8.67724,-0.7354 15.44352,-1.61898 20.29687,-2.64843 l 0.004,0.002 c 0.0737,-0.80889 0.18473,-2.28153 0.33203,-4.41406 0.15147,-2.20606 0.26255,-4.63202 0.33203,-7.2793 0.0695,-2.64727 0.10351,-5.07324 0.10351,-7.2793 -4.11794,0.66189 -9.59666,1.28677 -16.43554,1.875 -6.5963,0.49648 -13.92796,0.88839 -21.96094,1.17969 -0.0851,-2.46943 -0.18675,-4.9268 -0.32031,-7.35742 -0.3677,-6.69172 -0.88122,-12.9785 -1.54297,-18.86133 -0.66185,-5.88283 -1.4718,-11.10487 -2.42774,-15.66406 z"
         transform="matrix(0.04797373,0,0,0.04797373,79.713037,31.692101)" />
    </g>
  </g>
</svg>
