<?xml version="1.0" encoding="UTF-8" standalone="no"?>
<svg
   xmlns:dc="http://purl.org/dc/elements/1.1/"
   xmlns:cc="http://creativecommons.org/ns#"
   xmlns:rdf="http://www.w3.org/1999/02/22-rdf-syntax-ns#"
   xmlns:svg="http://www.w3.org/2000/svg"
   xmlns="http://www.w3.org/2000/svg"
   xmlns:sodipodi="http://sodipodi.sourceforge.net/DTD/sodipodi-0.dtd"
   xmlns:inkscape="http://www.inkscape.org/namespaces/inkscape"
   width="500"
   height="500"
   viewBox="0 0 132.29166 132.29167"
   version="1.1"
   id="svg8"
   inkscape:version="1.0.1 (c497b03c, 2020-09-10)"
   sodipodi:docname="cattle.svg">
  <defs
     id="defs2" />
  <sodipodi:namedview
     id="base"
     pagecolor="#ffffff"
     bordercolor="#666666"
     borderopacity="1.0"
     inkscape:pageopacity="0.0"
     inkscape:pageshadow="2"
     inkscape:zoom="1.3222744"
     inkscape:cx="264.37172"
     inkscape:cy="263.4037"
     inkscape:document-units="px"
     inkscape:current-layer="layer1"
     inkscape:document-rotation="0"
     showgrid="true"
     units="px"
     inkscape:window-width="1792"
     inkscape:window-height="1075"
     inkscape:window-x="0"
     inkscape:window-y="23"
     inkscape:window-maximized="1">
    <inkscape:grid
       type="axonomgrid"
       id="grid10"
       gridanglex="20"
       gridanglez="20"
       spacingy="0.99999999"
       empspacing="4"
       originx="66.14583"
       originy="66.145835" />
  </sodipodi:namedview>
  <metadata
     id="metadata5">
    <rdf:RDF>
      <cc:Work
         rdf:about="">
        <dc:format>image/svg+xml</dc:format>
        <dc:type
           rdf:resource="http://purl.org/dc/dcmitype/StillImage" />
        <dc:title></dc:title>
      </cc:Work>
    </rdf:RDF>
  </metadata>
  <g
     inkscape:label="Layer 1"
     inkscape:groupmode="layer"
     id="layer1">
    <g
       id="g4366"
       transform="matrix(0.31369318,0,0,0.31369318,-11.566331,-12.003596)"
       style="display:inline">
      <path
         id="outline #1"
         fill="none"
         stroke="#000000"
         stroke-width="1"
         d="m 189.45,338.55 c 1.75,16.75 -1.7,25.7 -5.95,33.45 -12.75,10.75 -11,10.75 -3,12.5 2.5,5.25 -5.25,2.25 -9,11 6.5,2.75 21.75,1.25 26.75,-2 7,-3.75 2.75,-8.75 2,-10.75 -0.75,-2 4.25,2.5 4.75,-4.25 0.5,-6.75 -3.5,-31.25 -0.5,-44.5 7,-5.75 7.75,-58.75 15.5,-58.5 7.75,0.25 92.5,1 107.75,-5.5 15.25,-6.5 20,-17.5 26,-11.5 6,6 0,12.5 3.5,20 3.5,7.5 3.25,-2.25 6.75,2.75 6,9.75 6.5,-6.25 7.75,-1.25 1.25,5 3.5,0.25 6.5,5 3,4.75 4,10 7,22 3,12 -3.25,28 -4.75,36.75 -1.75,12 4.75,8.75 -9.75,21.5 -19.5,13 -1,13.75 8.25,12 9.25,-1.75 6.5,-10.25 9.25,-13 9,-3 6.25,-10 8.75,-21.75 1.5,-21 7.5,-29.5 9,-42.75 4.25,7.5 6,19 6,33 0.25,21.5 -6.75,33.25 -8,38.75 -21,12.25 1.25,13.75 16.5,9.25 -1.5,-4 0,-9.75 5.75,-15.75 -1.25,-16.5 2.08,-37 1.75,-58.5 11,-20 2,-22 -2.5,-50 -4.5,-28 13,-81 6,-103.5 17,25.5 -16.5,107.75 4,121.75 C 440,176.75 452,163.5 433,133 c -14,-12.5 -34,-5 -39.5,-2 -5.5,3 -16.5,-4.25 -29.5,4.75 -13,9 -84,7.75 -99,6.25 -15,-1.5 -81.5,-11.25 -96,-5 -3,-4.25 -1,-7.5 -12.5,-9.5 -2.25,-2.75 -15.75,-6.75 -26.75,-5.25 C 112,115.5 89.5,118 85,124 c -7.75,1.75 -16,-2 -23,5.75 -8.25,-1 -19.75,-0.25 -18.25,11.25 1.5,11.5 21.25,19.75 33.75,18 0.75,6.5 1.75,5.25 5,10 3.25,4.75 -1.25,-2 2.25,13 1.79,7.68 4.76,16.34 5.25,24.5 0.47,7.78 -1.56,15.19 1.25,17.75 5.75,5.25 21,0 29.5,5 8.5,5 3,10.25 8.75,24 5.75,13.75 22.5,39.25 44,38.25 7.75,11.75 4.5,11.5 7,30 11,9.75 6.23,8.68 8.95,17.05 z"
         style="display:inline;fill:#d75902;fill-opacity:1" />
      <path
         id="HIGHLIGHT copy"
         fill="none"
         stroke="#000000"
         stroke-width="1"
         d="m 106.73,207.45 c -13.39,0.3 -7.03,6.87 -3.78,9.87 3.25,3 5,5.5 8.75,0.25 3.75,-5.25 8.41,-10.41 -4.97,-10.12 z m 260.6,-66.78 c -22.33,4 -72.33,26 -141.33,15.66 -69,-10.33 -70,1.34 -58,19.34 12,18 76.17,31.66 105.5,24.33 29.33,-7.33 74.67,-14 79,-23 4.33,-9 37.17,-40.33 14.83,-36.33 z m 13,118.66 c 0.34,-5.33 -15.66,-11 -16,-2.33 -0.33,8.67 -1.33,16.67 1.67,22 3,5.33 1,-8.67 6,-12.33 5,-3.67 2.67,3.33 4,7.66 1.33,4.34 4,-9.66 4.33,-15 z M 192.67,251 c -7.34,5 -11.67,13.33 -4.67,15.67 7,2.33 17,2.66 18,-4.67 1,-7.33 -6,-16 -13.33,-11 z m 209.66,-9.67 c -5.66,-5.66 -20.66,-7.33 -16.66,-0.33 4,7 5.33,16 12.66,14.67 7.34,-1.34 9.67,-8.67 4,-14.34 z M 420,143 c -9.67,-6.33 -23.33,-3.83 -21,5.5 2.33,9.33 11,34.17 17.67,25.5 6.66,-8.67 13,-24.67 3.33,-31 z M 181,378.5 c 0.82,-9.08 9.24,-2.53 11.5,-11.5 2.66,-10.53 -0.77,-35.44 0.5,-28 3,17.5 -10.5,-34.5 4,-30.5 14.5,4 4,25 2,43.5 -2,18.5 3,18.5 3,24 0,5.5 -2,14 -6.5,16 -4.5,2 -22.5,9 -5.5,-8.5 1.6,-3.84 -9.48,0.36 -9,-5 z m 239,-82 c -10.5,-1.5 0,50.5 -10.5,68 -10.5,17.5 -10,18.5 1.5,16 11.5,-2.5 4.5,-18 9,-37 4.5,-19 10.5,-45.5 0,-47 z M 391,288 c 12,-6 11.5,16 8,27.5 -3.5,11.5 -5.5,40 -9.5,44.5 -4,4.5 -36,32 -13,2 23,-30 2.5,-68 14.5,-74 z"
         style="display:inline;fill:#ec8751;fill-opacity:1;stroke:none" />
      <path
         id="path4421"
         style="display:inline;fill:#e0c4ba;fill-opacity:1;stroke:none"
         d="m 91.75,121.75 c 0.25,-2.5 25,-3.25 26.5,-1.25 1.5,2 -8.75,13.25 -11.75,13 -3,-0.25 -15,-9.25 -14.75,-11.75 z m 16,27.25 c -3,0 -8.25,8.5 -5.5,11.75 2.75,3.25 11.25,1.75 13,-1 C 117,157 110.75,149 107.75,149 Z M 92,133.75 c 3.5,2 4.9,-4.92 0.75,-6.5 -7.25,-2.75 -29.25,-4.5 -30.5,3.5 -1.25,8 2.25,-1.5 11.25,0 3.84,0.64 15,1 18.5,3 z m 31.5,-7.5 c 2,-3.25 25.5,-5.25 32,1.75 6.5,7 -5.5,0.5 -15.5,0.5 -10,0 -12.75,3 -16.5,5 -3.75,2 -2,-4 0,-7.25 z m -31.75,-4.5 c 0.25,-2.5 25,-3.25 26.5,-1.25 1.5,2 -8.75,13.25 -11.75,13 -3,-0.25 -15,-9.25 -14.75,-11.75 z m 16,27.25 c -3,0 -8.25,8.5 -5.5,11.75 2.75,3.25 11.25,1.75 13,-1 C 117,157 110.75,149 107.75,149 Z"
         inkscape:label="FACE-highlight" />
      <path
         id="FACE-lowlight"
         style="display:inline;fill:#a44514;fill-opacity:1;stroke:none"
         d="m 134,145 c 4,-8.25 10,-16 20,-16.25 10,-0.25 14.75,7.25 16.5,12.5 1.75,5.25 -11,15.75 -16,16.75 -5,1 -16.75,4 -18,2 -2.75,-4.5 -6.5,-6.75 -2.5,-15 z M 62.5,132.5 C 62.25,129 46.75,127.25 45,137 c -1.75,9.75 6.5,14.75 12.75,18.5 6.25,3.75 16.25,4.25 20,2.25 3.75,-2 5.75,-6.5 4,-12.25 C 80,139.75 73.5,131.75 70.5,132.25 c -3,0.5 -7.75,3.75 -8,0.25 z m 64.25,27.75 c -5,2.75 -5,27 -4,32 1,5 4.5,-21 9.5,-27.25 5,-6.25 -0.5,-7.5 -5.5,-4.75 z m -36.75,3 c 4,4.75 6,19.25 4.5,26.75 -3.25,13.75 -4.25,-17.25 -13.75,-26.25 -1.5,-5 5.25,-5.25 9.25,-0.5 z M 117.5,211 c -1.5,1.5 -5.75,8.75 -3,7.5 2.75,-1.25 4.5,-9 3,-7.5 z m -22.25,0 c -1.5,3 3.5,9.5 4.75,8.25 C 101.25,218 96.75,208 95.25,211 Z m 11,-7.5 c -16,-1.75 -13,4.5 0.5,3 13.25,1.5 16,-5 -0.5,-3 z" />
      <path
         id="lowlight"
         fill="none"
         stroke="#000000"
         stroke-width="1"
         d="m 265.25,230 c 4.75,-1.5 42.25,6 46.75,-0.5 4.5,-6.5 24.25,-3.25 27,-6 2.75,-2.75 17.75,-36 36.5,-49.5 3,-1.75 15.5,2.5 16.25,8.75 C 392.5,189 372,199.5 379,213 c 7,13.5 -24,16.25 -34.75,35.75 -10.75,19.5 -21.75,23 -58.75,23.25 -37,0.25 -52.25,-0.5 -61.5,0 -9.25,0.5 36.5,-40.5 41.25,-42 z M 138,198 c -3.75,5 -6.5,12 -7.75,19.5 -1.25,7.5 -1.25,29.75 4.25,40.25 5.5,10.5 23,34.75 43.25,30.5 20.25,-4.25 3.75,-15.5 2.5,-28 -1.25,-12.5 13.5,-7 13.5,-22.25 0,-15.25 -3.5,-6.25 -17,1 -13.5,7.25 -26.5,8 -22.75,-8.25 C 157.75,214.5 141.75,193 138,198 Z m 263.25,83.38 c 4.5,17.74 7.25,18.87 6.25,12.62 -1,-6.25 -5.5,-21.25 -8.25,-26.75 -2.75,-5.5 -4,-15 -18.75,-23.25 -14.75,-8.25 -27,1.5 -31.75,5.5 -4.75,4 0.5,5.25 3.25,6.25 3.48,0.79 6.25,4.63 7,-0.37 0.75,-5 10.25,-11.5 15.25,-7.5 5,4 17.87,9.62 17.13,14.24 -0.76,4.63 5.37,1.5 9.87,19.26 z m -29,-10.13 c 0,0 -3.5,5.75 -1,7 2.5,1.25 1,-7 1,-7 z M 383,297 c 0,0 -5.5,-14 -5,-19.75 0.5,-5.75 0.25,-4 2.5,7.5 2.25,11.5 2.5,12.25 2.5,12.25 z m 33,-39.25 c -2.27,-8.15 -8.74,-16.16 -7,-17.75 0.5,-2.5 9.5,-2.25 12,3.5 2.5,5.75 4.75,33.75 1,32.5 -4.25,1.24 -3.3,-8.58 -6,-18.25 z"
         style="display:inline;fill:#a44514;fill-opacity:1;stroke:none" />
    </g>
  </g>
</svg>
