<?xml version="1.0" encoding="UTF-8" standalone="no"?>
<svg
   xmlns:dc="http://purl.org/dc/elements/1.1/"
   xmlns:cc="http://creativecommons.org/ns#"
   xmlns:rdf="http://www.w3.org/1999/02/22-rdf-syntax-ns#"
   xmlns:svg="http://www.w3.org/2000/svg"
   xmlns="http://www.w3.org/2000/svg"
   xmlns:xlink="http://www.w3.org/1999/xlink"
   xmlns:sodipodi="http://sodipodi.sourceforge.net/DTD/sodipodi-0.dtd"
   xmlns:inkscape="http://www.inkscape.org/namespaces/inkscape"
   width="500"
   height="500"
   viewBox="0 0 132.29166 132.29167"
   version="1.1"
   id="svg8"
   inkscape:version="1.0.1 (c497b03c, 2020-09-10)"
   sodipodi:docname="meat.svg"
   inkscape:export-filename="/Users/richard/personal/du-meine-gute/design/secondary-resources/meat/meat.png"
   inkscape:export-xdpi="96"
   inkscape:export-ydpi="96">
  <defs
     id="defs2">
    <linearGradient
       id="h"
       x1="311.53"
       x2="262.79001"
       y1="551.07001"
       y2="517.58002"
       gradientUnits="userSpaceOnUse">
      <stop
         stop-color="#babdb6"
         offset="0"
         id="stop854" />
      <stop
         stop-color="#eeeeec"
         stop-opacity="0"
         offset="1"
         id="stop856" />
    </linearGradient>
    <filter
       id="k">
      <feGaussianBlur
         stdDeviation=".442"
         id="feGaussianBlur834" />
    </filter>
    <filter
       id="l">
      <feGaussianBlur
         stdDeviation="2.322"
         id="feGaussianBlur831" />
    </filter>
    <radialGradient
       id="g"
       cx="219.89"
       cy="-252.31"
       r="54.632"
       gradientTransform="matrix(0.42703,0.6981,-1.0345,0.63281,22.991,525.7)"
       gradientUnits="userSpaceOnUse">
      <stop
         stop-color="#efa875"
         offset="0"
         id="stop859" />
      <stop
         stop-color="#efa875"
         stop-opacity="0"
         offset="1"
         id="stop861" />
    </radialGradient>
    <linearGradient
       id="j"
       x1="527.29999"
       x2="519.51001"
       y1="605.66998"
       y2="589.77002"
       gradientUnits="userSpaceOnUse"
       spreadMethod="reflect">
      <stop
         stop-color="#ebae80"
         stop-opacity="0"
         offset="0"
         id="stop849" />
      <stop
         stop-color="#fffaec"
         offset="1"
         id="stop851" />
    </linearGradient>
    <linearGradient
       id="i"
       x1="261.39001"
       x2="233.36"
       y1="-205.41"
       y2="-277.32001"
       gradientTransform="matrix(2.0858,0.50784,0,2.1467,-91.891,1000.3)"
       gradientUnits="userSpaceOnUse">
      <stop
         stop-color="#8c0000"
         offset="0"
         id="stop842" />
      <stop
         stop-color="#a5251f"
         offset=".486"
         id="stop844" />
      <stop
         stop-color="#b53524"
         offset="1"
         id="stop846" />
    </linearGradient>
    <radialGradient
       id="f"
       cx="264.98999"
       cy="-306.26999"
       r="17.693001"
       gradientTransform="matrix(2.1467,0,0,0.75102,-172.34,824.09)"
       gradientUnits="userSpaceOnUse"
       xlink:href="#a" />
    <linearGradient
       id="a">
      <stop
         stop-color="#c5452a"
         offset="0"
         id="stop837" />
      <stop
         stop-color="#c5452a"
         stop-opacity="0"
         offset="1"
         id="stop839" />
    </linearGradient>
    <radialGradient
       id="e"
       cx="264.98999"
       cy="-306.26999"
       r="17.693001"
       gradientTransform="matrix(2.1467,0,0,0.75102,-100.24,839.27)"
       gradientUnits="userSpaceOnUse"
       xlink:href="#a" />
    <radialGradient
       id="d"
       cx="264.98999"
       cy="-306.26999"
       r="17.693001"
       gradientTransform="matrix(2.1467,-2.0396e-7,7.1355e-8,0.75102,-170.82,788.42)"
       gradientUnits="userSpaceOnUse"
       xlink:href="#a" />
    <radialGradient
       id="c"
       cx="262.69"
       cy="-308.25"
       r="17.693001"
       gradientTransform="matrix(2.14,0.16958,-0.05933,0.74867,-203.91,801.23)"
       gradientUnits="userSpaceOnUse"
       xlink:href="#a" />
    <radialGradient
       id="b"
       cx="264.98999"
       cy="-306.26999"
       r="17.693001"
       gradientTransform="matrix(2.0838,0.51586,-0.18047,0.72901,-111.89,722.12)"
       gradientUnits="userSpaceOnUse"
       xlink:href="#a" />
  </defs>
  <sodipodi:namedview
     id="base"
     pagecolor="#ffffff"
     bordercolor="#666666"
     borderopacity="1.0"
     inkscape:pageopacity="0.0"
     inkscape:pageshadow="2"
     inkscape:zoom="0.93498916"
     inkscape:cx="298.02278"
     inkscape:cy="177.31472"
     inkscape:document-units="px"
     inkscape:current-layer="layer1"
     inkscape:document-rotation="0"
     showgrid="true"
     units="px"
     inkscape:window-width="1252"
     inkscape:window-height="943"
     inkscape:window-x="0"
     inkscape:window-y="23"
     inkscape:window-maximized="0">
    <inkscape:grid
       type="axonomgrid"
       id="grid10"
       gridanglex="20"
       gridanglez="20"
       spacingy="0.99999999"
       empspacing="4"
       originx="66.14583"
       originy="66.145835" />
  </sodipodi:namedview>
  <metadata
     id="metadata5">
    <rdf:RDF>
      <cc:Work
         rdf:about="">
        <dc:format>image/svg+xml</dc:format>
        <dc:type
           rdf:resource="http://purl.org/dc/dcmitype/StillImage" />
        <dc:title></dc:title>
      </cc:Work>
    </rdf:RDF>
  </metadata>
  <g
     inkscape:label="Layer 1"
     inkscape:groupmode="layer"
     id="layer1">
    <g
       transform="matrix(0.47573803,0.05811565,0,0.47573803,-145.38767,-238.87587)"
       id="g919"
       inkscape:label="meat">
      <path
         id="path875-6"
         d="m 427.93624,502.2774 c -0.82987,4.6e-4 -1.68278,0.0176 -2.55273,0.0508 v 0.002 c -8.69772,0.3314 -19.58127,2.33149 -30.71289,5.55273 -8.90896,2.57805 -17.97072,5.93961 -26.20508,9.86914 -1.00774,0.48091 -2.00148,0.96938 -2.98242,1.4668 -0.0762,0.0386 -0.15054,0.0785 -0.22657,0.11719 -0.87886,0.44778 -1.74536,0.9009 -2.59961,1.36132 -0.18295,0.0986 -0.36316,0.19772 -0.54492,0.29688 -0.76156,0.41555 -1.51268,0.83654 -2.25195,1.26172 -0.20326,0.11687 -0.40399,0.23398 -0.60547,0.35156 -0.7059,0.41204 -1.40099,0.82757 -2.08398,1.24805 -0.21136,0.13009 -0.41985,0.2617 -0.62891,0.39257 -0.65569,0.41057 -1.29961,0.82414 -1.93164,1.24219 -0.22012,0.14557 -0.43913,0.29105 -0.65625,0.4375 -0.62683,0.42286 -1.23906,0.84935 -1.83984,1.2793 -0.18664,0.1335 -0.37458,0.26613 -0.5586,0.40034 -0.59675,0.43528 -1.17592,0.87442 -1.74414,1.31641 -0.1891,0.14708 -0.38058,0.29361 -0.5664,0.44141 -0.55058,0.43795 -1.08082,0.88019 -1.60157,1.32421 -0.17126,0.14603 -0.34769,0.29085 -0.51562,0.4375 -0.55204,0.48215 -1.07907,0.96835 -1.59375,1.45704 -0.11327,0.10753 -0.23236,0.21443 -0.34375,0.32226 -0.52969,0.5128 -1.03147,1.02947 -1.51758,1.54883 -0.0892,0.0953 -0.18572,0.18962 -0.27344,0.28516 -0.68432,0.74538 -1.31968,1.4965 -1.9082,2.2539 -3.05489,2.49377 -5.81698,5.36161 -8.2168,8.64649 -1.69097,1.80032 -3.24969,3.71197 -4.64062,5.74804 h 0.004 c -13.558,19.846 -23.83082,65.36877 -0.75781,72.10157 38.808,11.324 76.97121,21.6802 115.94921,30.5332 19.281,4.3795 38.75928,8.3916 58.61328,11.9707 6.26883,1.13003 11.98134,-0.66756 16.79492,-4.18164 16.06669,-6.05719 41.01109,-27.28263 49.30664,-40.54883 12.2613,-19.609 6.2416,-33.90867 -9.9414,-34.20117 -0.94729,-0.0171 -1.89426,-0.0819 -2.83985,-0.16797 -0.74871,-0.0698 -1.49781,-0.15476 -2.24804,-0.26758 -0.006,-8.8e-4 -0.0117,-0.003 -0.0176,-0.004 -5.80935,-0.87613 -11.66145,-3.01825 -17.49216,-6.07422 h -0.002 L 535.95,580.58 c -20.47113,-10.73415 -40.4509,-32.79311 -59.70702,-50.76953 -0.43802,-0.82078 -1.23082,-1.55236 -2.17187,-1.99805 -12.68823,-11.66074 -25.05792,-21.28625 -37.03711,-24.41406 -0.0671,-0.0179 -0.1341,-0.0333 -0.20117,-0.0508 -0.37503,-0.0957 -0.75075,-0.19264 -1.125,-0.27539 -0.564,-0.12769 -1.1272,-0.23676 -1.68946,-0.33399 -1.2275,-0.21226 -2.45044,-0.35502 -3.66992,-0.41015 -0.77475,-0.035 -1.58223,-0.0512 -2.41211,-0.0508 z"
         style="fill:none;stroke:#000000;stroke-width:3;stroke-miterlimit:4;stroke-dasharray:none"
         inkscape:label="outline" />
      <g
         id="g929"
         inkscape:label="shadow">
        <path
           transform="matrix(2.1467,0,0,2.1467,-306.34,-556.46)"
           d="m 292.62,552.02 c 0,0 -27.406,-13.322 -18.214,-21.1 9.192,-7.778 18.385,-7.7782 18.385,-7.7782 l 83.61,45.711 -83.781,-16.833 z"
           fill="url(#h)"
           filter="url(#k)"
           id="path871"
           style="display:none;fill:url(#h)" />
        <path
           transform="matrix(2.1467,0,0,2.1467,-311.34,-559.46)"
           d="m 358.61,493.5 c -13.652,1.1026 -27.212,5.6016 -38.558,13.327 -6.4828,5.6164 -12.845,12.005 -15.682,20.336 -2.7679,8.0212 -18.412,10.595 -14.019,18.497 3.1218,4.4443 9.2005,4.2428 13.839,6.0798 27.158,7.7134 54.569,14.723 82.404,19.518 5.7856,0.2049 10.017,-4.353 14.831,-6.896 7.9921,-4.6199 15.321,-10.959 19.703,-19.178 3.2933,-5.1857 2.2924,-14.347 -5.1676,-14.81 -12.895,-0.0909 -22.898,-9.7576 -31.815,-17.92 -9.6797,-8.7878 -5.1872,-12.415 -17.45,-17.739 -2.575,-0.9784 -5.3362,-1.3959 -8.0865,-1.2149 z"
           fill="#eeeeec"
           filter="url(#l)"
           id="path873"
           style="display:none" />
      </g>
      <path
         d="m 340.34,538.52 c 13.999,-20.492 65.146,-37.268 89.938,-36.147 39.179,1.7718 82.758,83.898 128.27,84.721 16.183,0.2925 22.203,14.592 9.9417,34.201 -10.162,16.251 -45.314,44.456 -58.516,42.076 -59.993,-10.815 -95.309,-47.208 -153.31,-64.133 -23.073,-6.7328 -29.876,-40.871 -16.318,-60.718 z"
         fill="#fffaec"
         id="path875" />
      <path
         d="m 425.33,502.36 c -26.098,0.9944 -71.872,16.948 -84.996,36.158 -0.3778,0.553 -0.7271,1.1028 -1.0733,1.6771 15.702,-12.346 38.724,-17.458 58.363,-16.57 16.958,0.7669 33.492,17.424 50.447,36.158 v -51.051 c -2.3869,-1.543 -4.7689,-2.8572 -7.1109,-4.0251 -3.5909,-1.3403 -7.1448,-2.1887 -10.666,-2.3479 -1.5495,-0.07 -3.2243,-0.0663 -4.9642,0 z m 146.51,92.777 v 17.912 c 2.7281,-7.3297 2.5329,-13.512 0,-17.912 z"
         fill="url(#g)"
         id="path877"
         style="fill:url(#g)" />
      <path
         d="m 535.95,580.58 -40.854,24.419 c 7.6067,4.6981 15.45,7.6656 23.546,7.9159 l 40.854,-24.486 -3.5555,-1.4759 c -6.6285,-0.5781 -13.323,-2.878 -19.991,-6.373 z"
         fill="url(#j)"
         id="path879"
         style="fill:url(#j)" />
      <path
         d="m 328.58,551.42 c 13.999,-20.492 44.275,-28.919 69.066,-27.798 39.179,1.7718 75.927,88.452 121.44,89.275 29.595,0.5349 12.433,58.379 -16.697,53.128 -19.854,-3.5791 -39.333,-7.5905 -58.614,-11.97 -38.978,-8.853 -77.142,-19.209 -115.95,-30.533 -23.073,-6.7328 -12.799,-52.256 0.759,-72.102 z"
         fill="url(#i)"
         id="path881"
         style="display:inline;fill:url(#i)"
         inkscape:label="inner-red" />
      <path
         d="m 394.43,521.98 c -23.805,0.0771 -48.933,5.6603 -62.057,24.871 l 6.8877,-6.6559 c 3.8767,-6.4333 29.2204,-20.1295 60.6914,-11.2635 21.698,0.9812 42.414,27.544 64.31,51.192 17.641,19.052 36.048,36.212 56.353,36.579 9.8022,0.1771 12.902,6.6508 13.71,15.027 0.8656,-10.808 -3.4236,-19.354 -15.228,-19.568 -45.508,-0.8225 -80.725,-88.276 -119.9,-90.048 -1.5495,-0.07 -3.176,-0.1393 -4.763,-0.1342 z"
         fill="#fdefdf"
         id="path883"
         sodipodi:nodetypes="ccccccccccc"
         style="display:inline"
         inkscape:label="inner-white-lip" />
      <g
         id="g937"
         inkscape:label="inner-details">
        <path
           d="m 459.72,613.81 c -0.009,-29.154 -90.53,-32.853 -101.19,-33.005 6.0005,8.8846 14.525,23.208 29.32,27.256 3.9961,1.0934 14.976,6.6277 19.187,7.5297 20.429,4.3755 39.668,-6.3789 52.68,-1.7809 z"
           fill="url(#f)"
           id="path885"
           style="display:inline;fill:url(#f)" />
        <path
           d="m 506.6,622.55 c -0.009,-29.154 -65.306,-26.413 -75.964,-26.565 5.9699,8.8393 4.953,21.814 15.043,24.681 16.079,4.5682 45.175,-3.6795 60.921,1.8843 z"
           fill="url(#e)"
           id="path887"
           style="display:inline;fill:url(#e)" />
        <path
           d="m 449.97,593.16 c -0.004,-12.679 -15.256,-29.144 -32.156,-35.832 -21.961,-8.6901 -51.738,-12.114 -57.761,-12.2 15.483,22.925 62.144,41.123 89.917,48.032 z"
           fill="url(#d)"
           id="path889"
           style="display:inline;fill:url(#d)" />
        <path
           d="m 418.15,633.12 c 2.2944,-29.063 -72.676,-35.246 -83.288,-36.239 13.624,24.076 58.456,25.188 83.288,36.239 z"
           fill="url(#c)"
           opacity="0.718"
           id="path891"
           style="display:inline;fill:url(#c)" />
        <path
           d="m 521.06,658.5 c 4.197,-16.975 13.294,-28.332 -13.304,-38.933 -13.52,-5.3887 -30.667,-5.441 -39.892,-5.6396 -2.8843,-0.062 -8.0302,4.7949 -5.977,-0.3967 -21.346,43.289 28.906,34.266 59.173,44.969 z"
           fill="url(#b)"
           id="path893"
           style="display:inline;fill:url(#b)" />
      </g>
      <g
         transform="matrix(2.1467,0,0,2.1467,-91.891,1000.3)"
         fill="#fce9d3"
         id="g911"
         style="display:inline"
         inkscape:label="inner-white">
        <path
           d="m 267.1816,-180.004 c -1.7562,-2.1448 -4.8365,-1.2793 -7.2497,-1.5467 -3.075,0.5107 -5.38,-2.0911 -8.4533,-1.5412 -3.4547,-1.387 -6.8494,-2.6554 -10.4827,-3.3878 0.2532,-2.2863 7.2492,0.5411 5.4078,-3.7821 -1.8215,-1.8626 -2.214,-5.0355 -4.9866,-6.0089 -2.4848,-0.45 -3.3794,-3.1441 -5.7768,-3.7405 -2.2885,-0.8935 -3.3363,-3.6174 -5.8754,-4.1284 -3.0242,-0.295 -5.0134,-2.5675 -7.8549,-3.3138 -2.2869,-1.4 2.8139,-1.627 3.9668,-1.2165 3.0921,1.601 5.8897,3.2384 9.0771,4.3927 2.8668,-0.0154 4.2333,3.0815 6.8727,3.7489 2.6161,2.1246 4.7685,4.836 7.8685,6.2894 2.9105,2.2351 5.0407,5.6955 8.616,6.9075 2.3001,2.125 5.4253,2.4786 8.2131,3.8397 1.5516,0.549 4.537,4.8338 1.7554,4.6715 -0.4536,-0.2997 -0.8282,-0.7133 -1.098,-1.1838 z"
           id="path895" />
        <path
           d="m 190.71156,-185.5308 c 2.026,-1.9371 3.6925,-4.2598 5.9834,-5.8999 2.2384,-0.6645 4.274,-1.7971 6.3491,-2.8692 2.0791,-0.4347 4.2754,-0.0552 6.4026,-0.1887 1.8448,0.135 5.9441,-0.9099 4.5843,2.2881 -2.1557,1.484 -4.9939,0.4786 -7.4501,0.7766 -2.4855,0.1116 -5.155,-0.5719 -7.3727,0.9435 -2.0639,0.6374 -3.1495,2.6921 -3.8107,4.571 -0.5036,2.7141 2.4825,2.2062 4.1778,2.0812 3.003,0.8496 -0.1163,3.8341 -2.0695,3.387 -2.3824,0.6602 -2.9217,-2.7672 -5.0571,-2.7449 -1.5019,0.2208 -3.0999,-0.8835 -1.7372,-2.3446 z"
           id="path897" />
        <path
           d="m 286.98978,-164.9221 c -1.4898,-2.0763 -3.9797,-3.1 -6.4757,-3.0869 -2.4382,-0.8605 -4.0114,-3.2264 -6.5792,-3.8841 -2.2579,-0.5536 -3.7875,-2.3132 -5.9028,-3.1355 -2.6974,-2.598 -3.3775,2.8696 -0.4969,2.9269 2.3029,-0.6481 4.9469,0.6284 6.9268,1.9253 1.5082,1.9777 2.5371,4.7811 4.8072,5.8597 2.731,0.4211 4.1213,3.4305 6.2268,4.0897 1.6714,-0.8565 2.0179,-3.0464 1.4937,-4.695 z"
           id="path899" />
        <path
           d="m 205.061,-204.8737 c 2.0965,-1.2858 4.8801,-0.7767 6.9933,0.2284 2.3774,1.0319 0.6951,3.3183 -1.3427,2.2451 -2.0275,-0.4677 -3.7278,-1.7472 -5.6507,-2.4734 z"
           id="path901" />
        <path
           d="m 244.3054,-172.3468 c 2.8556,-2.0921 6.2243,-3.673 9.7991,-3.8852 -4.1028,-0.4598 -6.2676,4.3644 -10.2291,4.4448 -0.0622,-0.3279 0.2157,-0.4018 0.43,-0.5596 z"
           id="path903" />
        <path
           d="m 216.3747,-181.1856 c -1.9231,-0.6223 1.6273,0.4929 2.1861,0.499 2.0621,-0.2091 3.3775,1.6762 5.1189,2.5054 0.8453,0.7679 3.8525,1.5295 3.5824,0.4698 -3.6674,-1.5172 -8.2726,-0.7333 -11.2884,-3.7209 l 0.401,0.2466 z"
           id="path905" />
        <path
           d="m 203.2932,-185.4597 c 1.733,-0.64 4.034,-0.3866 5.7808,0.1137 1.9652,0.5137 0.5746,1.6517 -1.1099,1.1175 -1.676,-0.2328 -3.0815,-0.8697 -4.6709,-1.2312 z"
           id="path907" />
        <path
           d="m 222.1641,-189.8213 c 0.0493,-0.3035 -0.9427,-0.7195 -2.2043,-0.9244 -1.5293,-0.2484 -2.2342,-0.7405 -2.1147,-1.4763 0.1494,-0.9197 0.9439,-0.9795 4.7672,-0.3586 2.5234,0.4098 4.5476,0.9934 4.4983,1.297 -0.0493,0.3036 1.4588,0.8033 3.3513,1.1107 3.8483,0.625 4.1472,0.9505 1.5719,1.7118 -1.9974,0.5905 -10.0072,-0.5134 -9.8697,-1.3602 z"
           id="path909" />
      </g>
      <g
         id="g960"
         inkscape:label="outer-details">
        <path
           d="m 470.54,527.76 c 4.1611,-1.5777 -2.4988,2.0989 -3.4072,2.8852 -2.1817,2.1622 -7.3119,6.2799 -8.7004,5.3144 -3.8006,1.0175 -6.4561,4.6298 -8.0974,7.9419 -1.0252,4.0044 4.9998,-0.507 7.1523,-0.4481 3.1931,-0.8345 6.2992,-2.1949 9.0693,-4.0027 1.5433,-3.0994 4.7332,-5.6636 8.0286,-5.835 4.8373,-2.0462 -0.2827,-7.7056 -4.0452,-5.8559 z"
           fill="#fdf0dd"
           id="path913" />
        <path
           d="m 454.4422,557.2766 c 3.2152,-1.4754 5.4065,-4.4502 8.3908,-6.3149 2.1433,-1.3584 5.2875,-7.8295 6.8712,-2.5994 -1.255,2.697 -6.0175,1.2432 -7.6011,4.5169 -2.5039,1.8897 -5.484,7.43 -8.4404,5.8 -0.3395,-0.5795 -0.1007,-1.619 0.7795,-1.4027 z"
           fill="#fdf0dd"
           id="path915" />
        <path
           d="m 484.3617,574.4106 c -4.8848,1.3778 -8.2886,6.2488 -10.398,10.7335 -0.9803,4.0339 3.1034,1.7695 6.373,0.3354 -0.0584,-0.3422 -0.0796,-0.8054 0.067,-1.4088 2.1094,-4.4847 5.5133,-9.3557 10.398,-10.7335 26.6763,-21.6573 3.5214,-1.779 -6.44,1.0733 z"
           fill="#fdf0dd"
           id="path917" />
      </g>
    </g>
  </g>
</svg>
