<?xml version="1.0" encoding="UTF-8" standalone="no"?>
<svg
   xmlns:dc="http://purl.org/dc/elements/1.1/"
   xmlns:cc="http://creativecommons.org/ns#"
   xmlns:rdf="http://www.w3.org/1999/02/22-rdf-syntax-ns#"
   xmlns:svg="http://www.w3.org/2000/svg"
   xmlns="http://www.w3.org/2000/svg"
   xmlns:xlink="http://www.w3.org/1999/xlink"
   xmlns:sodipodi="http://sodipodi.sourceforge.net/DTD/sodipodi-0.dtd"
   xmlns:inkscape="http://www.inkscape.org/namespaces/inkscape"
   width="500"
   height="500"
   viewBox="0 0 132.29166 132.29167"
   version="1.1"
   id="svg8"
   inkscape:version="1.0.1 (c497b03c, 2020-09-10)"
   sodipodi:docname="tools.svg">
  <defs
     id="defs2">
    <clipPath
       id="p">
      <path
         id="b"
         d="m22.42 17.2 12.96 12.95-2.5 8.78-8.78 2.5-12.96-12.96-5.86 5.86 14.89 21.46 17.56-3.34 61.63 65.62c9.44 9.51 22.17-4.75 13.34-12.87l-65.85-62.28 4.01-17.76-22.14-14.27-6.3 6.31zm81.06 91.97c1.68-1.68 4.4-1.68 6.08 0s1.68 4.4 0 6.08c-1.68 1.67-4.4 1.67-6.08 0-1.68-1.68-1.68-4.4 0-6.08z" />
    </clipPath>
    <clipPath
       id="o">
      <path
         id="c"
         d="m55.8,12 .76.16c8.84-2.94 28.68,8.64 24.26,18.96-1.12,1.62-.93,4.5.42,6.31l-24.81,24.82c-1.39-1.39-4.48-1.36-5.9,0l-41.03,39.38c-3.74,3.59-.8,6.64.78,8.25l7.36,7.36c1.61,1.6 5.86,3.76 8.88.56l38.72-40.81c1.35-1.42 1.36-4.47 0-5.87 0,0 .01-.02 0-.02l24.91-24.9c2.63,2.37 5.11383,2.57485 7.47,1.93 4.55057-1.24543 7.08725,3.20664 9.81,6.46l-1.23,1.21c-1.82,1.84-1.65,4.94.39,6.98s5.15,2.21 6.97.39l8.14-8.13c1.82-1.84 1.65-4.94-.4-6.97-1.84-1.85-4.51-2.09-6.37-.77-5.58-6.26-2.65-7.2-10.01-15.35l-13.79-14.09c-9.93-9.74-22.83-9.73-35.33-5.86z" />
    </clipPath>
    <linearGradient
       id="a">
      <stop
         stop-color="#fff"
         offset="0"
         id="stop240" />
      <stop
         stop-color="#fff"
         stop-opacity="0"
         offset="1"
         id="stop242" />
    </linearGradient>
    <linearGradient
       id="d">
      <stop
         offset="0"
         id="stop245" />
      <stop
         stop-opacity="0"
         offset="1"
         id="stop247" />
    </linearGradient>
    <linearGradient
       id="h"
       x1="637.03"
       x2="638.3"
       y1="69.99"
       y2="118.3"
       gradientTransform="matrix(0.1,0.1,-0.22,0.2,75.6,-33.53)"
       gradientUnits="userSpaceOnUse"
       xlink:href="#a" />
    <linearGradient
       id="n"
       x1="512.7"
       x2="615.59"
       y1="254.36"
       y2="254.83"
       gradientTransform="matrix(0.0807,0.0775,-0.35,0.36,77.14,-45.89)"
       gradientUnits="userSpaceOnUse"
       xlink:href="#a" />
    <linearGradient
       id="m"
       x1="543.1"
       x2="419.88"
       gradientTransform="matrix(0.0998,0.0998,-0.28,0.28,78.84,-44.8)"
       gradientUnits="userSpaceOnUse"
       xlink:href="#d" />
    <linearGradient
       id="l"
       x2="0"
       y1="62.74"
       y2="-1.72"
       gradientTransform="matrix(0.33,0.33,-0.0944,0.0944,9.03,-48.1)"
       gradientUnits="userSpaceOnUse"
       xlink:href="#a" />
    <linearGradient
       id="k"
       x2="0"
       y1="288.57"
       y2="368.27"
       gradientTransform="matrix(0.3,0.3,-0.09,0.09,78.84,-44.8)"
       gradientUnits="userSpaceOnUse"
       xlink:href="#a" />
    <linearGradient
       id="j"
       x1="577.03"
       x2="626.1"
       gradientTransform="matrix(0.0775,0.0775,-0.36,0.36,78.84,-44.8)"
       gradientUnits="userSpaceOnUse"
       xlink:href="#a" />
    <linearGradient
       id="i"
       x1="2608.326"
       x2="2495.4777"
       y1="1915.2594"
       y2="1802.0885"
       xlink:href="#d"
       gradientUnits="userSpaceOnUse" />
    <linearGradient
       id="g"
       x1="48.308"
       x2="40.592"
       y1="37.78"
       y2="51.048"
       gradientUnits="userSpaceOnUse"
       xlink:href="#a" />
    <linearGradient
       id="f"
       x1="36.68"
       x2="63.839"
       y1="65.82"
       y2="38.858"
       gradientUnits="userSpaceOnUse"
       xlink:href="#a" />
    <linearGradient
       id="e"
       x1="73.577"
       x2="83.997"
       y1="62.999"
       y2="83.479"
       gradientUnits="userSpaceOnUse"
       xlink:href="#d" />
    <clipPath
       id="p-3">
      <path
         id="b-4"
         d="m 22.42,17.2 12.96,12.95 -2.5,8.78 -8.78,2.5 -12.96,-12.96 -5.86,5.86 14.89,21.46 17.56,-3.34 61.63,65.62 c 9.44,9.51 22.17,-4.75 13.34,-12.87 L 46.85,42.92 50.86,25.16 28.72,10.89 Z m 81.06,91.97 c 1.68,-1.68 4.4,-1.68 6.08,0 1.68,1.68 1.68,4.4 0,6.08 -1.68,1.67 -4.4,1.67 -6.08,0 -1.68,-1.68 -1.68,-4.4 0,-6.08 z" />
    </clipPath>
    <linearGradient
       id="f-6"
       x1="36.68"
       x2="63.839001"
       y1="65.82"
       y2="38.858002"
       gradientUnits="userSpaceOnUse"
       xlink:href="#a"
       gradientTransform="matrix(1.0019691,0,0,1.0019691,1.9143733,0.58116036)" />
    <linearGradient
       id="g-5"
       x1="48.307999"
       x2="40.591999"
       y1="37.779999"
       y2="51.048"
       gradientUnits="userSpaceOnUse"
       xlink:href="#a"
       gradientTransform="matrix(1.0019691,0,0,1.0019691,1.9143733,0.58116036)" />
    <linearGradient
       id="e-2"
       x1="73.577003"
       x2="83.997002"
       y1="62.999001"
       y2="83.478996"
       gradientUnits="userSpaceOnUse"
       xlink:href="#d"
       gradientTransform="matrix(1.0019691,0,0,1.0019691,1.9143733,0.58116036)" />
    <linearGradient
       id="i-8"
       x1="2608.3259"
       x2="2495.4778"
       y1="1915.2594"
       y2="1802.0885"
       xlink:href="#d"
       gradientUnits="userSpaceOnUse"
       gradientTransform="matrix(1.0019691,0,0,1.0019691,1.9143733,0.58116036)" />
    <linearGradient
       id="j-7"
       x1="577.03003"
       x2="626.09998"
       gradientTransform="matrix(0.07765261,0.07765261,-0.36070888,0.36070888,80.909617,-44.307055)"
       gradientUnits="userSpaceOnUse"
       xlink:href="#a" />
    <linearGradient
       id="k-6"
       x2="0"
       y1="288.57001"
       y2="368.26999"
       gradientTransform="matrix(0.30059073,0.30059073,-0.09017722,0.09017722,80.909617,-44.307055)"
       gradientUnits="userSpaceOnUse"
       xlink:href="#a" />
    <linearGradient
       id="l-0"
       x2="0"
       y1="62.740002"
       y2="-1.72"
       gradientTransform="matrix(0.3306498,0.3306498,-0.09458588,0.09458588,10.962154,-47.613553)"
       gradientUnits="userSpaceOnUse"
       xlink:href="#a" />
    <linearGradient
       id="m-0"
       x1="543.09998"
       x2="419.88"
       gradientTransform="matrix(0.09999652,0.09999652,-0.28055135,0.28055135,80.909617,-44.307055)"
       gradientUnits="userSpaceOnUse"
       xlink:href="#d" />
    <clipPath
       id="o-0">
      <path
         id="c-0"
         d="m 55.8,12 0.76,0.16 c 8.84,-2.94 28.68,8.64 24.26,18.96 -1.12,1.62 -0.93,4.5 0.42,6.31 L 56.43,62.25 c -1.39,-1.39 -4.48,-1.36 -5.9,0 L 9.5,101.63 c -3.74,3.59 -0.8,6.64 0.78,8.25 l 7.36,7.36 c 1.61,1.6 5.86,3.76 8.88,0.56 L 65.24,76.99 c 1.35,-1.42 1.36,-4.47 0,-5.87 0,0 0.01,-0.02 0,-0.02 L 90.15,46.2 c 2.63,2.37 5.11383,2.57485 7.47,1.93 4.55057,-1.24543 7.08725,3.20664 9.81,6.46 l -1.23,1.21 c -1.82,1.84 -1.65,4.94 0.39,6.98 2.04,2.04 5.15,2.21 6.97,0.39 l 8.14,-8.13 c 1.82,-1.84 1.65,-4.94 -0.4,-6.97 -1.84,-1.85 -4.51,-2.09 -6.37,-0.77 -5.58,-6.26 -2.65,-7.2 -10.01,-15.35 L 91.13,17.86 C 81.2,8.12 68.3,8.13 55.8,12 Z" />
    </clipPath>
  </defs>
  <sodipodi:namedview
     id="base"
     pagecolor="#ffffff"
     bordercolor="#666666"
     borderopacity="1.0"
     inkscape:pageopacity="0.0"
     inkscape:pageshadow="2"
     inkscape:zoom="0.66113718"
     inkscape:cx="188.64327"
     inkscape:cy="118.74086"
     inkscape:document-units="px"
     inkscape:current-layer="g516"
     inkscape:document-rotation="0"
     showgrid="true"
     units="px"
     inkscape:window-width="1792"
     inkscape:window-height="1075"
     inkscape:window-x="0"
     inkscape:window-y="23"
     inkscape:window-maximized="1">
    <inkscape:grid
       type="axonomgrid"
       id="grid10"
       gridanglex="20"
       gridanglez="20"
       spacingy="0.99999999"
       empspacing="4"
       originx="66.14583"
       originy="66.145835" />
  </sodipodi:namedview>
  <metadata
     id="metadata5">
    <rdf:RDF>
      <cc:Work
         rdf:about="">
        <dc:format>image/svg+xml</dc:format>
        <dc:type
           rdf:resource="http://purl.org/dc/dcmitype/StillImage" />
        <dc:title />
      </cc:Work>
    </rdf:RDF>
  </metadata>
  <g
     inkscape:label="Layer 1"
     inkscape:groupmode="layer"
     id="layer1">
    <g
       id="g516"
       inkscape:label="tools">
      <path
         id="path1586"
         style="color:#000000;font-style:normal;font-variant:normal;font-weight:normal;font-stretch:normal;font-size:medium;line-height:normal;font-family:sans-serif;font-variant-ligatures:normal;font-variant-position:normal;font-variant-caps:normal;font-variant-numeric:normal;font-variant-alternates:normal;font-variant-east-asian:normal;font-feature-settings:normal;font-variation-settings:normal;text-indent:0;text-align:start;text-decoration:none;text-decoration-line:none;text-decoration-style:solid;text-decoration-color:#000000;letter-spacing:normal;word-spacing:normal;text-transform:none;writing-mode:lr-tb;direction:ltr;text-orientation:mixed;dominant-baseline:auto;baseline-shift:baseline;text-anchor:start;white-space:normal;shape-padding:0;shape-margin:0;inline-size:0;clip-rule:nonzero;display:inline;overflow:visible;visibility:visible;opacity:1;isolation:auto;mix-blend-mode:normal;color-interpolation:sRGB;color-interpolation-filters:linearRGB;solid-color:#000000;solid-opacity:1;vector-effect:none;fill:#1a1a1a;fill-opacity:1;fill-rule:nonzero;stroke:none;stroke-width:7.77082;stroke-linecap:butt;stroke-linejoin:round;stroke-miterlimit:4;stroke-dasharray:none;stroke-dashoffset:0;stroke-opacity:1;color-rendering:auto;image-rendering:auto;shape-rendering:auto;text-rendering:auto;enable-background:accumulate;stop-color:#000000"
         d="M 71.804251,8.070591 C 66.803097,8.097718 61.752389,9.0351462 56.929304,10.528374 a 3.885806,3.885806 0 0 0 0.348177,7.515126 l 0.738438,0.155302 a 3.885806,3.885806 0 0 0 2.025941,-0.115725 c 2.017885,-0.671106 8.552496,0.684648 13.17464,3.885562 2.311073,1.600457 4.171467,3.534261 5.100928,5.216151 0.867962,1.570606 1.028169,2.649574 0.593154,3.841978 -1.425846,2.315761 -1.550668,4.787248 -0.803063,7.104326 L 63.740058,52.503565 53.662946,42.972516 57.069076,27.879643 A 3.885806,3.885806 0 0 0 55.384297,23.757621 L 33.878443,9.8956428 a 3.885806,3.885806 0 0 0 -2.164212,-0.618704 3.885806,3.885806 0 0 0 -2.688733,1.1397182 l -6.119911,6.128928 a 3.885806,3.885806 0 0 0 0.0021,5.494693 L 33.880446,33.003615 32.67009,37.254388 28.419319,38.466246 17.44496,27.491888 a 3.885806,3.885806 0 0 0 -5.494695,0 L 6.2586897,33.183465 A 3.885806,3.885806 0 0 0 5.813824,38.146123 l 14.463649,20.845068 a 3.885806,3.885806 0 0 0 3.917625,1.601617 l 14.960113,-2.845538 6.50466,6.925478 -35.245093,33.826834 c -2.5799382,2.476468 -3.3978592,6.200848 -2.559982,8.746018 0.8378771,2.54517 2.451169,3.99484 3.233794,4.79233 a 3.885806,3.885806 0 0 0 0.02655,0.0266 l 7.149916,7.14941 a 3.885806,3.885806 0 0 0 0.0075,0.008 c 1.374345,1.36581 3.212752,2.54382 5.750191,3.06947 2.534751,0.52509 6.042877,-0.0811 8.433414,-2.60757 l 0.006,-0.006 32.593432,-34.353353 32.503256,34.607353 a 3.885806,3.885806 0 0 0 0.07364,0.0776 c 2.942021,2.96383 6.636181,4.37747 10.063591,4.19566 3.4274,-0.1818 6.44206,-1.7917 8.63029,-4.06891 2.18824,-2.27721 3.64555,-5.29002 3.78737,-8.62078 0.14183,-3.33075 -1.2318,-6.93343 -4.13555,-9.60369 L 78.207708,66.187694 92.039126,52.362287 c 2.650012,1.175172 5.459801,1.331082 7.687461,0.721404 0.895813,-0.245172 0.871573,-0.185213 1.831063,0.662792 0.43303,0.38272 1.12261,1.302957 1.66624,1.966825 -1.97013,3.37622 -1.38172,7.775101 1.44281,10.599629 3.30077,3.300763 8.84339,3.796924 12.26186,0.380742 l 0.002,-0.0021 7.90538,-7.895868 a 3.885806,3.885806 0 0 0 0.017,-0.01503 c 3.38396,-3.421127 2.90199,-8.963262 -0.40929,-12.252345 -2.00972,-2.013137 -4.80721,-2.83002 -7.46958,-2.489792 -0.92805,-1.310068 -1.47841,-2.373828 -2.1091,-3.824944 -0.91075,-2.0955 -2.39328,-4.99465 -6.18955,-9.198402 A 3.885806,3.885806 0 0 0 108.5693,30.901524 L 95.173234,17.215889 a 3.885806,3.885806 0 0 0 -0.05511,-0.05661 C 88.338484,10.509356 80.139513,8.0253787 71.804251,8.070591 Z M 32.306885,18.128666 48.891661,28.816967 45.594743,43.419386 a 3.885806,3.885806 0 0 0 1.121184,3.67916 l 11.528436,10.90322 -0.455386,0.455386 c -0.659039,-0.135288 -1.321756,-0.295721 -1.965826,-0.293571 -1.494997,0.005 -3.04473,0.292286 -4.468698,1.221377 l -7.995559,-8.513069 a 3.885806,3.885806 0 0 0 -3.557926,-1.15675 l -14.57787,2.771894 -11.174749,-16.103841 0.649264,-0.649264 9.842156,9.840151 a 3.885806,3.885806 0 0 0 3.811416,0.990428 l 8.528098,-2.427725 a 3.885806,3.885806 0 0 0 2.671698,-2.673203 l 2.42923,-8.528097 a 3.885806,3.885806 0 0 0 -0.989928,-3.813421 l -9.842154,-9.832636 z m 40.402629,53.554726 33.846876,32.011798 c -1.7952,0.17584 -3.55632,0.83001 -4.91156,2.18526 -1.31651,1.3165 -1.951142,3.01743 -2.154697,4.75826 L 70.400018,79.664425 c 1.334068,-1.603214 1.718409,-3.417674 1.720351,-5.149021 7.69e-4,-0.641827 -0.157026,-1.298419 -0.291568,-1.9518 z m 34.635406,39.580028 c 0.0654,0 0.13083,0.0371 0.2054,0.11172 0.14572,0.14572 0.139,0.25717 0,0.40128 -0.13871,0.13206 -0.27204,0.13327 -0.4108,0 -0.139,-0.14411 -0.14572,-0.25556 0,-0.40128 0.0746,-0.0746 0.13997,-0.11172 0.2054,-0.11172 z"
         inkscape:label="outline" />
      <g
         id="g372"
         inkscape:label="spanner"
         transform="matrix(1.0019691,0,0,1.0019691,1.9143733,0.58116036)">
        <use
           opacity="0.25"
           stroke="#000000"
           stroke-linejoin="round"
           stroke-width="8"
           xlink:href="#b"
           id="use262"
           x="0"
           y="0"
           width="100%"
           height="100%"
           style="display:none" />
        <use
           opacity="0.5"
           stroke="#000000"
           stroke-linejoin="round"
           stroke-width="4"
           xlink:href="#b"
           id="use264"
           x="0"
           y="0"
           width="100%"
           height="100%"
           style="display:inline" />
        <use
           fill="#888a85"
           xlink:href="#b"
           id="use266"
           x="0"
           y="0"
           width="100%"
           height="100%" />
        <use
           clip-path="url(#p)"
           fill="none"
           stroke="#ffffff"
           stroke-opacity="0.2"
           stroke-width="4"
           xlink:href="#b"
           id="use268"
           x="0"
           y="0"
           width="100%"
           height="100%"
           style="display:none" />
        <path
           d="M 24.33,15.4 37.78,28.78 34.45,40.47 23.5,43.74 9.93194,30 5.2,34.54 19.4,54.48 38.3,50.34 100.8,116.7 c 7.5,8.3 20.2,-2.67 11.14,-11.6 L 45.04,42 48.9,24.83 28.94,10.8 Z m 79.97,93.3 c 1.67,-1.67 4.63,-2 6.3,-0.3 1.7,1.67 3.06,4.63 0.65,7.84 -2,2 -5.2,1.92 -7.2,-0.24 -1.68,-1.68 -1.45,-5.6 0.25,-7.3 z"
           fill="url(#f)"
           opacity="0.75"
           id="path270"
           style="display:inline;fill:url(#f)" />
        <path
           d="M 24.2,15.42 47.67,39.07 50.89,25.2 28.79,10.8 Z"
           fill="url(#g)"
           opacity="0.5"
           id="path272"
           style="display:inline;fill:url(#g)" />
      </g>
      <g
         id="g364"
         inkscape:label="hammer"
         transform="matrix(1.0019691,0,0,1.0019691,1.9143733,0.58116036)"
         sodipodi:insensitive="true">
        <path
           d="m 70.739,65.52 4.631,4.28 c 0.38,4.32 -0.73,5.62 -7.83,11.64 l -8.6,-9.22 11.79,-6.7 z"
           fill="url(#e)"
           opacity="0.25"
           id="path274"
           style="display:none;fill:url(#e)" />
        <use
           opacity="0.25"
           stroke="#000000"
           stroke-linejoin="round"
           stroke-width="8"
           xlink:href="#c"
           id="use276"
           x="0"
           y="0"
           width="100%"
           height="100%"
           style="display:none" />
        <use
           opacity="0.5"
           stroke="#000000"
           stroke-linejoin="round"
           stroke-width="4"
           xlink:href="#c"
           id="use278"
           x="0"
           y="0"
           width="100%"
           height="100%"
           style="display:none" />
        <path
           d="M 82.92,35.75 53.47,65.2 62.3,74.03 91.75,44.59 Z"
           fill="#d3d7cf"
           id="path280" />
        <path
           d="M 88.93,41.76 59.48,71.2 62.3,74.03 91.75,44.59 Z"
           fill="url(#i)"
           opacity="0.5"
           id="path282"
           style="fill:url(#i)" />
        <path
           d="M 86.46,37.04 57.13,66.37 60.92,70.16 89.5,40.08 Z"
           fill="url(#j)"
           id="path284"
           style="fill:url(#j)" />
        <path
           d="m 55.8,12 0.76,0.16 c 8.84,-2.94 28.68,8.64 24.26,18.96 -1.12,1.62 -0.93,4.5 0.42,6.31 l 8.91,8.77 c 2.63,2.37 5.11,2.57 7.47,1.93 4.55,-1.23 7.08,3.2 9.81,6.46 l -1.23,1.21 c -1.82,1.84 -1.65,4.94 0.39,6.98 2.04,2.04 5.15,2.21 6.97,0.39 l 8.14,-8.13 c 1.82,-1.84 1.65,-4.94 -0.4,-6.97 -1.84,-1.85 -4.51,-2.09 -6.37,-0.77 -5.58,-6.26 -2.65,-7.2 -10.01,-15.35 L 91.13,17.86 C 81.2,8.12 68.3,8.13 55.8,12 Z"
           fill="#2e3436"
           id="path286" />
        <path
           d="m 114.93,47.3 c -5.58,-6.26 -2.65,-7.2 -10.01,-15.35 L 91.13,17.86 C 85.44,12.28 78.77,9.9 71.77,9.6 l 41.13,41.53 2.9754,-2.73 -0.94535,-1.1 z"
           fill="url(#k)"
           opacity="0.5"
           id="path288"
           style="fill:url(#k)" />
        <path
           d="m 81.45,28 c 0.05,1 -0.17934,2 -0.65,3.12 -1.1,1.62 -0.91,4.5 0.44,6.31 l 8.91,8.77 c 2.63,2.37 5.11,2.57 7.47,1.93 1.08,-0.33 2.06,-0.27 2.98,0 C 103.4,48.9 81.44,27.58 81.45,27.9 Z"
           fill="url(#l)"
           opacity="0.25"
           id="path290"
           style="fill:url(#l)" />
        <path
           d="m 56.43,62.25 c -1.39,-1.39 -4.48,-1.36 -5.9,0 L 9.5,101.63 c -3.74,3.59 -0.82,6.64 0.78,8.25 l 7.36,7.36 c 1.61,1.6 5.86,3.76 8.88,0.56 L 65.24,76.99 c 1.35,-1.42 1.36,-4.47 0,-5.87 0,0 0.01,-0.02 0,-0.02 z"
           fill="#3465a4"
           id="path292"
           style="display:inline;fill:#a05a2c" />
        <path
           d="m 10.27,109.87 7.36,7.37 c 1.61,1.6 5.73,3.89 8.75,0.71 L 65.25,76.98 c 1.35,-1.43 1.39,-4.5 0,-5.88 l -8.83,-8.84 z"
           fill="url(#m)"
           opacity="0.25"
           id="path294"
           style="display:inline;fill:url(#m)" />
        <path
           d="m 51.2,65.7 -38.88,38.04 c -1.62,1.56 -1.07,3.75 0.1,4.89 L 16.55,112.6 58.92,69 55,65.32 c -0.84,-0.8 -2.8,-0.57 -3.8,0.38 z"
           fill="url(#n)"
           opacity="0.5"
           id="path296"
           style="fill:url(#n)" />
        <use
           clip-path="url(#o)"
           fill="none"
           stroke="#ffffff"
           stroke-linejoin="round"
           stroke-opacity="0.2"
           stroke-width="4"
           xlink:href="#c"
           id="use298"
           x="0"
           y="0"
           width="100%"
           height="100%"
           style="display:inline" />
        <path
           d="m 120.45,49.26 c 1.51,1.44 1.8,3.44 -0.28,5.36 l -3.87,3.63 c -2.08,1.95 -7.52,-3.25 -5.45,-5.19 l 3.88,-3.63 c 2.07,-1.95 4.21,-1.61 5.72,-0.17 z"
           fill="url(#h)"
           id="path300"
           style="fill:url(#h)" />
      </g>
    </g>
  </g>
</svg>
