<?xml version="1.0" encoding="UTF-8" standalone="no"?>
<svg
   xmlns:dc="http://purl.org/dc/elements/1.1/"
   xmlns:cc="http://creativecommons.org/ns#"
   xmlns:rdf="http://www.w3.org/1999/02/22-rdf-syntax-ns#"
   xmlns:svg="http://www.w3.org/2000/svg"
   xmlns="http://www.w3.org/2000/svg"
   xmlns:xlink="http://www.w3.org/1999/xlink"
   xmlns:sodipodi="http://sodipodi.sourceforge.net/DTD/sodipodi-0.dtd"
   xmlns:inkscape="http://www.inkscape.org/namespaces/inkscape"
   width="500"
   height="500"
   viewBox="0 0 132.29166 132.29167"
   version="1.1"
   id="svg8"
   inkscape:version="1.0.1 (c497b03c, 2020-09-10)"
   sodipodi:docname="shoe.svg"
   inkscape:export-filename="/Users/richard/personal/du-meine-gute/design/secondary-resources/shoe/shoe.png"
   inkscape:export-xdpi="96"
   inkscape:export-ydpi="96">
  <defs
     id="defs2">
    <linearGradient
       id="b">
      <stop
         offset="0"
         id="stop5961" />
      <stop
         stop-opacity="0"
         offset="1"
         id="stop5963" />
    </linearGradient>
    <linearGradient
       id="c">
      <stop
         stop-color="#fff"
         offset="0"
         id="stop5966" />
      <stop
         stop-color="#fff"
         stop-opacity="0"
         offset="1"
         id="stop5968" />
    </linearGradient>
    <linearGradient
       id="l"
       x1="172.4"
       x2="235.28"
       gradientUnits="userSpaceOnUse">
      <stop
         offset="0"
         id="stop5971" />
      <stop
         stop-opacity="0"
         offset="1"
         id="stop5973" />
    </linearGradient>
    <linearGradient
       id="f"
       x1="698.3"
       x2="704.81"
       y1="209.07"
       y2="223.32"
       gradientUnits="userSpaceOnUse"
       xlink:href="#b" />
    <linearGradient
       id="e"
       x1="710.11"
       x2="705.63"
       y1="226.58"
       y2="217.62"
       gradientUnits="userSpaceOnUse"
       xlink:href="#c" />
    <linearGradient
       id="q"
       x1="228.45"
       x2="523.58"
       gradientUnits="userSpaceOnUse"
       xlink:href="#b" />
    <linearGradient
       id="p"
       x1="733.6"
       x2="527.46"
       y1="362.9"
       y2="446.97"
       gradientUnits="userSpaceOnUse"
       xlink:href="#c" />
    <linearGradient
       id="o"
       x1="833.8"
       x2="754.33"
       y1="490.73"
       y2="627.78"
       gradientUnits="userSpaceOnUse"
       xlink:href="#c" />
    <linearGradient
       id="n"
       x1="556.25"
       x2="610.38"
       y1="268.46"
       y2="244.28"
       gradientUnits="userSpaceOnUse"
       xlink:href="#c" />
    <linearGradient
       id="m"
       x1="586.19"
       x2="517.09"
       y1="353.68"
       y2="372.11"
       gradientUnits="userSpaceOnUse"
       xlink:href="#c" />
    <linearGradient
       id="k"
       x1="208.39"
       x2="438.84"
       gradientUnits="userSpaceOnUse"
       xlink:href="#b" />
    <linearGradient
       id="j"
       x1="416.9"
       x2="450.3"
       y1="537.95"
       y2="503.4"
       gradientUnits="userSpaceOnUse"
       xlink:href="#b" />
    <linearGradient
       id="i"
       x1="670.26"
       x2="676.02"
       y1="623.17"
       y2="604.74"
       gradientUnits="userSpaceOnUse"
       xlink:href="#b" />
    <linearGradient
       id="h"
       x1="760.09"
       x2="771.61"
       y1="685.36"
       y2="608.2"
       gradientUnits="userSpaceOnUse"
       xlink:href="#b" />
    <linearGradient
       id="d"
       x1="264.38"
       x2="319.66"
       y1="469.75"
       y2="407.56"
       gradientUnits="userSpaceOnUse"
       xlink:href="#b" />
    <linearGradient
       id="a"
       x1="262.58"
       x2="317.86"
       y1="472.3"
       y2="410.11"
       gradientUnits="userSpaceOnUse"
       xlink:href="#b" />
    <radialGradient
       id="g"
       cx="528.61"
       cy="618.56"
       r="431.87"
       gradientTransform="matrix(1 0 0 .26933 0 451.96)"
       gradientUnits="userSpaceOnUse"
       xlink:href="#b" />
    <linearGradient
       id="k-2"
       x1="208.39"
       x2="438.84"
       gradientUnits="userSpaceOnUse"
       xlink:href="#b" />
    <linearGradient
       id="l-0"
       x1="172.39999"
       x2="235.28"
       gradientUnits="userSpaceOnUse">
      <stop
         offset="0"
         id="stop5971-6" />
      <stop
         stop-opacity="0"
         offset="1"
         id="stop5973-6" />
    </linearGradient>
    <linearGradient
       id="q-1"
       x1="228.45"
       x2="523.58002"
       gradientUnits="userSpaceOnUse"
       xlink:href="#b" />
    <linearGradient
       inkscape:collect="always"
       xlink:href="#b"
       id="linearGradient7825"
       gradientUnits="userSpaceOnUse"
       x1="698.3"
       y1="209.07"
       x2="704.81"
       y2="223.32" />
    <linearGradient
       inkscape:collect="always"
       xlink:href="#c"
       id="linearGradient7827"
       gradientUnits="userSpaceOnUse"
       x1="710.11"
       y1="226.58"
       x2="705.63"
       y2="217.62" />
    <linearGradient
       inkscape:collect="always"
       xlink:href="#b"
       id="linearGradient7829"
       gradientUnits="userSpaceOnUse"
       x1="698.3"
       y1="209.07"
       x2="704.81"
       y2="223.32" />
    <linearGradient
       inkscape:collect="always"
       xlink:href="#c"
       id="linearGradient7831"
       gradientUnits="userSpaceOnUse"
       x1="710.11"
       y1="226.58"
       x2="705.63"
       y2="217.62" />
    <linearGradient
       inkscape:collect="always"
       xlink:href="#b"
       id="linearGradient7833"
       gradientUnits="userSpaceOnUse"
       x1="698.3"
       y1="209.07"
       x2="704.81"
       y2="223.32" />
    <linearGradient
       inkscape:collect="always"
       xlink:href="#c"
       id="linearGradient7835"
       gradientUnits="userSpaceOnUse"
       x1="710.11"
       y1="226.58"
       x2="705.63"
       y2="217.62" />
    <linearGradient
       inkscape:collect="always"
       xlink:href="#b"
       id="linearGradient7837"
       gradientUnits="userSpaceOnUse"
       x1="262.58"
       y1="472.3"
       x2="317.86"
       y2="410.11" />
    <linearGradient
       inkscape:collect="always"
       xlink:href="#b"
       id="linearGradient7839"
       gradientUnits="userSpaceOnUse"
       x1="262.58"
       y1="472.3"
       x2="317.86"
       y2="410.11" />
    <linearGradient
       inkscape:collect="always"
       xlink:href="#b"
       id="linearGradient7841"
       gradientUnits="userSpaceOnUse"
       x1="262.58"
       y1="472.3"
       x2="317.86"
       y2="410.11" />
    <linearGradient
       inkscape:collect="always"
       xlink:href="#b"
       id="linearGradient7843"
       gradientUnits="userSpaceOnUse"
       x1="262.58"
       y1="472.3"
       x2="317.86"
       y2="410.11" />
    <linearGradient
       inkscape:collect="always"
       xlink:href="#b"
       id="linearGradient7845"
       gradientUnits="userSpaceOnUse"
       x1="262.58"
       y1="472.3"
       x2="317.86"
       y2="410.11" />
    <linearGradient
       inkscape:collect="always"
       xlink:href="#b"
       id="linearGradient7847"
       gradientUnits="userSpaceOnUse"
       x1="262.58"
       y1="472.3"
       x2="317.86"
       y2="410.11" />
    <linearGradient
       inkscape:collect="always"
       xlink:href="#b"
       id="linearGradient7849"
       gradientUnits="userSpaceOnUse"
       x1="262.58"
       y1="472.3"
       x2="317.86"
       y2="410.11" />
    <linearGradient
       inkscape:collect="always"
       xlink:href="#b"
       id="linearGradient7851"
       gradientUnits="userSpaceOnUse"
       x1="262.58"
       y1="472.3"
       x2="317.86"
       y2="410.11" />
    <linearGradient
       inkscape:collect="always"
       xlink:href="#b"
       id="linearGradient7853"
       gradientUnits="userSpaceOnUse"
       x1="262.58"
       y1="472.3"
       x2="317.86"
       y2="410.11" />
    <linearGradient
       inkscape:collect="always"
       xlink:href="#b"
       id="linearGradient7855"
       gradientUnits="userSpaceOnUse"
       x1="262.58"
       y1="472.3"
       x2="317.86"
       y2="410.11" />
    <linearGradient
       inkscape:collect="always"
       xlink:href="#b"
       id="linearGradient7857"
       gradientUnits="userSpaceOnUse"
       x1="262.58"
       y1="472.3"
       x2="317.86"
       y2="410.11" />
    <linearGradient
       inkscape:collect="always"
       xlink:href="#b"
       id="linearGradient7859"
       gradientUnits="userSpaceOnUse"
       x1="262.58"
       y1="472.3"
       x2="317.86"
       y2="410.11" />
    <linearGradient
       inkscape:collect="always"
       xlink:href="#b"
       id="linearGradient7861"
       gradientUnits="userSpaceOnUse"
       x1="262.58"
       y1="472.3"
       x2="317.86"
       y2="410.11" />
    <linearGradient
       inkscape:collect="always"
       xlink:href="#b"
       id="linearGradient7863"
       gradientUnits="userSpaceOnUse"
       x1="262.58"
       y1="472.3"
       x2="317.86"
       y2="410.11" />
    <linearGradient
       inkscape:collect="always"
       xlink:href="#b"
       id="linearGradient7865"
       gradientUnits="userSpaceOnUse"
       x1="262.58"
       y1="472.3"
       x2="317.86"
       y2="410.11" />
    <linearGradient
       inkscape:collect="always"
       xlink:href="#b"
       id="linearGradient7867"
       gradientUnits="userSpaceOnUse"
       x1="262.58"
       y1="472.3"
       x2="317.86"
       y2="410.11" />
    <linearGradient
       inkscape:collect="always"
       xlink:href="#b"
       id="linearGradient7869"
       gradientUnits="userSpaceOnUse"
       x1="264.38"
       y1="469.75"
       x2="319.66"
       y2="407.56" />
    <linearGradient
       inkscape:collect="always"
       xlink:href="#b"
       id="linearGradient7871"
       gradientUnits="userSpaceOnUse"
       x1="264.38"
       y1="469.75"
       x2="319.66"
       y2="407.56" />
    <linearGradient
       inkscape:collect="always"
       xlink:href="#b"
       id="linearGradient7873"
       gradientUnits="userSpaceOnUse"
       x1="264.38"
       y1="469.75"
       x2="319.66"
       y2="407.56" />
    <linearGradient
       inkscape:collect="always"
       xlink:href="#b"
       id="linearGradient7875"
       gradientUnits="userSpaceOnUse"
       x1="264.38"
       y1="469.75"
       x2="319.66"
       y2="407.56" />
    <linearGradient
       inkscape:collect="always"
       xlink:href="#b"
       id="linearGradient7877"
       gradientUnits="userSpaceOnUse"
       x1="264.38"
       y1="469.75"
       x2="319.66"
       y2="407.56" />
    <linearGradient
       inkscape:collect="always"
       xlink:href="#b"
       id="linearGradient7879"
       gradientUnits="userSpaceOnUse"
       x1="264.38"
       y1="469.75"
       x2="319.66"
       y2="407.56" />
    <linearGradient
       inkscape:collect="always"
       xlink:href="#b"
       id="linearGradient7881"
       gradientUnits="userSpaceOnUse"
       x1="264.38"
       y1="469.75"
       x2="319.66"
       y2="407.56" />
    <linearGradient
       inkscape:collect="always"
       xlink:href="#b"
       id="linearGradient7883"
       gradientUnits="userSpaceOnUse"
       x1="264.38"
       y1="469.75"
       x2="319.66"
       y2="407.56" />
    <linearGradient
       inkscape:collect="always"
       xlink:href="#b"
       id="linearGradient7885"
       gradientUnits="userSpaceOnUse"
       x1="264.38"
       y1="469.75"
       x2="319.66"
       y2="407.56" />
    <linearGradient
       inkscape:collect="always"
       xlink:href="#b"
       id="linearGradient7887"
       gradientUnits="userSpaceOnUse"
       x1="264.38"
       y1="469.75"
       x2="319.66"
       y2="407.56" />
    <linearGradient
       inkscape:collect="always"
       xlink:href="#b"
       id="linearGradient7889"
       gradientUnits="userSpaceOnUse"
       x1="264.38"
       y1="469.75"
       x2="319.66"
       y2="407.56" />
    <linearGradient
       inkscape:collect="always"
       xlink:href="#b"
       id="linearGradient7891"
       gradientUnits="userSpaceOnUse"
       x1="264.38"
       y1="469.75"
       x2="319.66"
       y2="407.56" />
    <linearGradient
       inkscape:collect="always"
       xlink:href="#b"
       id="linearGradient7893"
       gradientUnits="userSpaceOnUse"
       x1="264.38"
       y1="469.75"
       x2="319.66"
       y2="407.56" />
    <linearGradient
       inkscape:collect="always"
       xlink:href="#b"
       id="linearGradient7895"
       gradientUnits="userSpaceOnUse"
       x1="264.38"
       y1="469.75"
       x2="319.66"
       y2="407.56" />
    <linearGradient
       inkscape:collect="always"
       xlink:href="#b"
       id="linearGradient7897"
       gradientUnits="userSpaceOnUse"
       x1="264.38"
       y1="469.75"
       x2="319.66"
       y2="407.56" />
    <linearGradient
       inkscape:collect="always"
       xlink:href="#b"
       id="linearGradient7899"
       gradientUnits="userSpaceOnUse"
       x1="264.38"
       y1="469.75"
       x2="319.66"
       y2="407.56" />
    <linearGradient
       inkscape:collect="always"
       xlink:href="#b"
       id="linearGradient7901"
       gradientUnits="userSpaceOnUse"
       x1="264.38"
       y1="469.75"
       x2="319.66"
       y2="407.56" />
    <linearGradient
       inkscape:collect="always"
       xlink:href="#b"
       id="linearGradient7903"
       gradientUnits="userSpaceOnUse"
       x1="264.38"
       y1="469.75"
       x2="319.66"
       y2="407.56" />
    <linearGradient
       inkscape:collect="always"
       xlink:href="#b"
       id="linearGradient7905"
       gradientUnits="userSpaceOnUse"
       x1="264.38"
       y1="469.75"
       x2="319.66"
       y2="407.56" />
    <linearGradient
       inkscape:collect="always"
       xlink:href="#b"
       id="linearGradient7907"
       gradientUnits="userSpaceOnUse"
       x1="264.38"
       y1="469.75"
       x2="319.66"
       y2="407.56" />
    <linearGradient
       inkscape:collect="always"
       xlink:href="#b"
       id="linearGradient7909"
       gradientUnits="userSpaceOnUse"
       x1="264.38"
       y1="469.75"
       x2="319.66"
       y2="407.56" />
    <linearGradient
       inkscape:collect="always"
       xlink:href="#b"
       id="linearGradient7911"
       gradientUnits="userSpaceOnUse"
       x1="264.38"
       y1="469.75"
       x2="319.66"
       y2="407.56" />
    <linearGradient
       inkscape:collect="always"
       xlink:href="#b"
       id="linearGradient7913"
       gradientUnits="userSpaceOnUse"
       x1="264.38"
       y1="469.75"
       x2="319.66"
       y2="407.56" />
    <linearGradient
       inkscape:collect="always"
       xlink:href="#b"
       id="linearGradient7915"
       gradientUnits="userSpaceOnUse"
       x1="264.38"
       y1="469.75"
       x2="319.66"
       y2="407.56" />
    <linearGradient
       inkscape:collect="always"
       xlink:href="#b"
       id="linearGradient7917"
       gradientUnits="userSpaceOnUse"
       x1="264.38"
       y1="469.75"
       x2="319.66"
       y2="407.56" />
    <linearGradient
       inkscape:collect="always"
       xlink:href="#b"
       id="linearGradient7919"
       gradientUnits="userSpaceOnUse"
       x1="264.38"
       y1="469.75"
       x2="319.66"
       y2="407.56" />
    <linearGradient
       inkscape:collect="always"
       xlink:href="#b"
       id="linearGradient7921"
       gradientUnits="userSpaceOnUse"
       x1="264.38"
       y1="469.75"
       x2="319.66"
       y2="407.56" />
    <linearGradient
       inkscape:collect="always"
       xlink:href="#b"
       id="linearGradient7923"
       gradientUnits="userSpaceOnUse"
       x1="264.38"
       y1="469.75"
       x2="319.66"
       y2="407.56" />
    <linearGradient
       inkscape:collect="always"
       xlink:href="#b"
       id="linearGradient7925"
       gradientUnits="userSpaceOnUse"
       x1="264.38"
       y1="469.75"
       x2="319.66"
       y2="407.56" />
    <linearGradient
       inkscape:collect="always"
       xlink:href="#b"
       id="linearGradient7927"
       gradientUnits="userSpaceOnUse"
       x1="264.38"
       y1="469.75"
       x2="319.66"
       y2="407.56" />
    <linearGradient
       inkscape:collect="always"
       xlink:href="#b"
       id="linearGradient7929"
       gradientUnits="userSpaceOnUse"
       x1="264.38"
       y1="469.75"
       x2="319.66"
       y2="407.56" />
    <linearGradient
       inkscape:collect="always"
       xlink:href="#b"
       id="linearGradient7931"
       gradientUnits="userSpaceOnUse"
       x1="262.58"
       y1="472.3"
       x2="317.86"
       y2="410.11" />
    <linearGradient
       id="h-2"
       x1="760.09003"
       x2="771.60999"
       y1="685.35999"
       y2="608.20001"
       gradientUnits="userSpaceOnUse"
       xlink:href="#b" />
    <linearGradient
       id="i-9"
       x1="670.26001"
       x2="676.02002"
       y1="623.16998"
       y2="604.73999"
       gradientUnits="userSpaceOnUse"
       xlink:href="#b" />
    <linearGradient
       id="j-9"
       x1="416.89999"
       x2="450.29999"
       y1="537.95001"
       y2="503.39999"
       gradientUnits="userSpaceOnUse"
       xlink:href="#b" />
    <linearGradient
       id="k-20"
       x1="208.39"
       x2="438.84"
       gradientUnits="userSpaceOnUse"
       xlink:href="#b" />
    <linearGradient
       id="l-1"
       x1="172.39999"
       x2="235.28"
       gradientUnits="userSpaceOnUse">
      <stop
         offset="0"
         id="stop5971-0" />
      <stop
         stop-opacity="0"
         offset="1"
         id="stop5973-5" />
    </linearGradient>
    <linearGradient
       id="m-3"
       x1="586.19"
       x2="517.09003"
       y1="353.67999"
       y2="372.10999"
       gradientUnits="userSpaceOnUse"
       xlink:href="#c" />
    <linearGradient
       id="n-3"
       x1="556.25"
       x2="610.38"
       y1="268.45999"
       y2="244.28"
       gradientUnits="userSpaceOnUse"
       xlink:href="#c" />
    <linearGradient
       id="o-0"
       x1="833.79999"
       x2="754.33002"
       y1="490.73001"
       y2="627.78003"
       gradientUnits="userSpaceOnUse"
       xlink:href="#c" />
    <linearGradient
       id="p-1"
       x1="733.59998"
       x2="527.46002"
       y1="362.89999"
       y2="446.97"
       gradientUnits="userSpaceOnUse"
       xlink:href="#c" />
    <linearGradient
       id="q-15"
       x1="228.45"
       x2="523.58002"
       gradientUnits="userSpaceOnUse"
       xlink:href="#b" />
  </defs>
  <sodipodi:namedview
     id="base"
     pagecolor="#ffffff"
     bordercolor="#666666"
     borderopacity="1.0"
     inkscape:pageopacity="0.0"
     inkscape:pageshadow="2"
     inkscape:zoom="1.3222744"
     inkscape:cx="337.08428"
     inkscape:cy="279.22498"
     inkscape:document-units="px"
     inkscape:current-layer="layer1"
     inkscape:document-rotation="0"
     showgrid="true"
     units="px"
     inkscape:window-width="1792"
     inkscape:window-height="1075"
     inkscape:window-x="0"
     inkscape:window-y="23"
     inkscape:window-maximized="1">
    <inkscape:grid
       type="axonomgrid"
       id="grid10"
       gridanglex="20"
       gridanglez="20"
       spacingy="0.99999999"
       empspacing="4"
       originx="66.14583"
       originy="66.145835" />
  </sodipodi:namedview>
  <metadata
     id="metadata5">
    <rdf:RDF>
      <cc:Work
         rdf:about="">
        <dc:format>image/svg+xml</dc:format>
        <dc:type
           rdf:resource="http://purl.org/dc/dcmitype/StillImage" />
        <dc:title />
      </cc:Work>
    </rdf:RDF>
  </metadata>
  <g
     inkscape:label="Layer 1"
     inkscape:groupmode="layer"
     id="layer1">
    <g
       id="g6348"
       transform="matrix(-0.15287667,-0.04084207,-0.04084207,0.15287667,161.70499,32.809875)"
       inkscape:label="shoe">
      <path
         d="m 264.32,436.01 44.876,-19.503 -6.6015,-41.165 -35.424,13.029 z"
         id="path5994" />
      <path
         d="m 169.69,293.65 c 28.174,63.37 105.14,87.209 146.78,134.27 0.83899,0.94823 1.6704,1.8993 2.4974,2.8503 16,18.399 29.927,37.136 40.725,56.187 14.715,25.962 27.904,50.31 44.513,70.601 1.032,1.2608 0.9387,3.3608 2.239,4.3665 47.189,36.5 119.64,59.38 196.27,79.47 43.737,11.467 89.09,22.981 132.43,26.542 73.724,-1.6374 131.25,-10.216 119.77,-48.369 l -467.57,-401.93 c -72.554,25.336 -208.76,-76.637 -217.66,76.009 z"
         fill="#2b1100"
         id="path5996" />
      <path
         d="m 170.29,294.86 c 28.174,63.37 105.14,87.209 146.78,134.27 0.83899,0.94823 1.6704,1.8993 2.4974,2.8503 16,18.399 29.927,37.136 40.725,56.187 14.715,25.962 27.904,50.31 44.513,70.601 1.032,1.2608 0.9387,3.3608 2.239,4.3665 47.189,36.5 119.64,59.38 196.27,79.47 43.737,11.467 89.09,22.981 132.43,26.542 73.724,-1.6374 131.25,-10.216 119.77,-48.369 l -467.57,-401.93 c -72.554,25.336 -208.76,-76.637 -217.66,76.009 z"
         id="path5998"
         style="display:inline" />
      <path
         d="m 171.6,273.07 c 28.174,63.37 105.14,87.209 146.78,134.27 0.83899,0.94823 1.6704,1.8993 2.4974,2.8503 16,18.399 29.927,37.136 40.725,56.187 14.715,25.962 27.904,50.31 44.513,70.601 1.0321,1.2608 0.93873,3.3608 2.239,4.3665 47.189,36.5 119.64,59.38 196.27,79.47 43.737,11.467 89.09,22.981 132.43,26.542 73.724,-1.6374 131.25,-10.216 119.77,-48.369 C 835.4814,537.0628 787.99163,492.23227 743.01163,436.18227 593.52163,249.89227 586.2044,223.4878 529.7544,142.9278 l -45.871,-0.8194 -260.94,-72.154 c -38.672,73.091 -49.291,139.17 -51.357,203.11 z"
         fill="#2b1100"
         id="path6000"
         style="display:inline"
         sodipodi:nodetypes="csssscccccccccc" />
      <path
         d="m 228.32,63.467 c -17.461,3.5716 41.481,118.54 65.647,122.06 0.70104,0.10199 1.4372,-0.27509 2.0126,0.0192 43.694,22.348 234.65,-44.339 234.65,-44.339 -66.035,9.3677 -127.38,-22.513 -234.32,-90.247 -3.7976,-2.4054 -8.6009,-2.8032 -12.999,-4.1889 -16.785,-5.1578 -44.52,-18.327 -54.991,16.699 z"
         fill="#502d16"
         id="path6002" />
      <path
         d="m 416.9,178.06 c 30.838,71.185 52.725,141.47 52.976,209.6 42.303,5.5219 82.649,-2.6594 120.35,-29.367 -25.493,-62.547 -58.683,-123.81 -93.284,-184.84 -30.496,-21.361 -53.627,1.4696 -80.04,4.6066 z"
         fill="#552200"
         id="path6004" />
      <path
         d="m 532.06,140.63 124.95,190.6 -53.552,21.881 c -23.797,-61.613 -56.051,-123.23 -96.739,-184.84 -13.624,-30.057 14.277,-20.895 25.336,-27.64 z"
         fill="#552200"
         id="path6006" />
      <path
         d="m 165.68,292.56 c 28.174,63.37 105.14,87.209 146.78,134.27 0.83899,0.94823 1.6704,1.8993 2.4974,2.8503 16,18.399 29.927,37.136 40.725,56.187 14.715,25.962 27.904,50.31 44.513,70.601 1.032,1.2608 0.9387,3.3608 2.239,4.3665 47.189,36.5 119.64,59.38 196.27,79.47 43.737,11.467 89.09,22.981 132.43,26.542 73.724,-1.6374 131.25,-10.216 119.77,-48.369 l -467.57,-401.93 c -72.554,25.336 -208.76,-76.637 -217.66,76.009 z"
         fill="url(#h)"
         id="path6008"
         style="fill:url(#h)" />
      <path
         d="m 310.26,374.38 c 6.6971,-64.741 109.66,34.745 164.5,52.118 5.69,14.882 129.59,-41.164 202.77,-66.776 15.571,27.791 37.092,52.013 63.519,73.291 -102.91,2.3486 -175.86,51.948 -222.32,143.32 -52.962,-13.013 -94.187,-35.213 -116.37,-71.628 -27.273,-44.762 -56.646,-90.134 -92.097,-130.33 z"
         fill="#552200"
         id="path6010" />
      <path
         d="m 213.36,121.94 -4.8861,38.274 c 10.214,24.877 24.281,47.545 30.432,74.245 6.8045,29.533 2.3515,65.923 16.799,99.21 l 35.017,25.245 c 28.06,-103.73 98.416,4.0179 148.21,8.9578 -5.6085,-51.575 -20.745,-103.15 -41.531,-154.72 -118.96,53.133 -149.45,-22.013 -184.04,-91.206 z"
         fill="#552200"
         id="path6012" />
      <path
         d="m 550.5,594.26 c 35.554,-100.4 116.34,-132.12 210.1,-144.14 33.95,48.987 86.925,88.461 89.578,153.1 -22.53,17.945 -45.06,26.122 -67.59,33.388 l -35.017,0.81434 c -68.837,-4.9455 -132.31,-25.979 -197.07,-43.16 z"
         fill="#552200"
         id="path6014" />
      <path
         d="m 223.13,65.748 c -15.473,64.469 -71.263,128.94 -46.417,193.41 17.102,24.293 33.244,50.506 56.597,62.297 -5.0738,-13.565 -8.6617,-27.315 -9.2993,-41.954 -0.6264,-14.381 -7.1403,-28.04 -12.99,-42.059 -9.1271,-24.436 -26.729,-46.224 -20.057,-75.598 z"
         fill="#552200"
         id="path6016" />
      <path
         d="m 171.83,297.64 -1.6287,52.118 c 29.54,49.049 63.083,63.403 95.685,85.913 l 2.443,-49.268 z"
         id="path6018" />
      <path
         d="m 550.37,594.2 c 35.554,-100.4 116.34,-132.12 210.1,-144.14 33.95,48.987 86.925,88.461 89.578,153.1 -22.53,17.945 -45.06,26.122 -67.59,33.388 l -35.017,0.81434 c -68.837,-4.9455 -132.31,-25.979 -197.07,-43.16 z"
         fill="url(#i)"
         id="path6020"
         style="fill:url(#i)" />
      <path
         d="m 310.91,376.39 c 6.6971,-64.741 109.66,34.745 164.5,52.118 5.69,14.882 129.59,-41.164 202.77,-66.776 15.571,27.791 37.092,52.013 63.519,73.291 -102.91,2.3486 -175.86,51.948 -222.32,143.32 -52.962,-13.013 -94.187,-35.213 -116.37,-71.628 -27.273,-44.762 -56.646,-90.134 -92.097,-130.33 z"
         fill="url(#j)"
         id="path6022"
         style="fill:url(#j)" />
      <path
         d="m 213.27,122.46 -4.886,38.274 c 10.214,24.877 24.281,47.545 30.432,74.245 6.8045,29.533 2.3515,65.923 16.799,99.21 l 35.017,25.245 c 28.06,-103.73 98.416,4.0179 148.21,8.9578 -5.6085,-51.575 -20.745,-103.15 -41.532,-154.72 -118.96,53.133 -149.45,-22.013 -184.04,-91.206 z"
         fill="url(#k)"
         id="path6024"
         style="fill:url(#k)" />
      <path
         d="m 225.1,68.056 c -15.473,64.469 -71.263,128.94 -46.418,193.41 17.102,24.293 33.244,50.506 56.597,62.297 -5.0738,-13.565 -8.6617,-27.315 -9.2993,-41.954 -0.6264,-14.381 -7.1403,-28.04 -12.99,-42.059 -9.1271,-24.436 -26.729,-46.224 -20.057,-75.598 z"
         fill="url(#l)"
         id="path6026"
         style="fill:url(#l)" />
      <path
         d="m 414.31,178.88 c 30.838,71.185 52.725,141.47 52.976,209.6 42.303,5.5219 82.649,-2.6594 120.35,-29.367 -25.493,-62.547 -58.683,-123.81 -93.284,-184.84 -30.496,-21.361 -53.627,1.4696 -80.04,4.6066 z"
         fill="url(#m)"
         id="path6028"
         style="fill:url(#m)" />
      <path
         d="m 529,135.73 124.95,190.6 -53.552,21.881 c -23.798,-61.613 -56.051,-123.23 -96.739,-184.84 -13.624,-30.057 14.277,-20.895 25.336,-27.64 z"
         fill="url(#n)"
         id="path6030"
         style="fill:url(#n)" />
      <path
         d="m 552.67,595.35 c 35.554,-100.4 116.34,-132.12 210.1,-144.14 33.95,48.987 86.925,88.461 89.578,153.1 -22.53,17.945 -45.06,26.122 -67.59,33.388 l -35.017,0.81434 c -68.837,-4.9455 -132.31,-25.979 -197.07,-43.16 z"
         fill="url(#o)"
         id="path6032"
         style="fill:url(#o)" />
      <path
         d="m 312.06,374.08 c 6.6971,-64.741 109.66,34.745 164.5,52.118 5.69,14.882 129.59,-41.164 202.77,-66.776 15.571,27.791 37.092,52.013 63.519,73.291 -102.91,2.3486 -175.86,51.948 -222.32,143.32 -52.962,-13.013 -94.187,-35.213 -116.37,-71.628 -27.273,-44.762 -56.646,-90.134 -92.097,-130.33 z"
         fill="url(#p)"
         id="path6034"
         style="fill:url(#p)" />
      <g
         transform="translate(-198.08,-28.791)"
         id="g6050">
        <path
           transform="matrix(0.79688,0,0,1,134.65,0)"
           d="m 688.93,235.74 c 0,5.9592 -5.8335,10.79 -13.029,10.79 -7.1955,0 -13.029,-4.8309 -13.029,-10.79 0,-5.9591 5.8335,-10.79 13.029,-10.79 7.1955,0 13.029,4.8309 13.029,10.79 z"
           opacity="0.8006"
           id="path6036" />
        <path
           transform="matrix(0.51563,0,0,0.67925,324.54,75.208)"
           d="m 688.93,235.74 c 0,5.9592 -5.8335,10.79 -13.029,10.79 -7.1955,0 -13.029,-4.8309 -13.029,-10.79 0,-5.9591 5.8335,-10.79 13.029,-10.79 7.1955,0 13.029,4.8309 13.029,10.79 z"
           id="path6038" />
        <path
           transform="matrix(0.79688,0,0,1,197.55,-25.041)"
           d="m 688.93,235.74 c 0,5.9592 -5.8335,10.79 -13.029,10.79 -7.1955,0 -13.029,-4.8309 -13.029,-10.79 0,-5.9591 5.8335,-10.79 13.029,-10.79 7.1955,0 13.029,4.8309 13.029,10.79 z"
           opacity="0.8006"
           id="path6040" />
        <path
           transform="matrix(0.51563,0,0,0.67925,387.45,50.167)"
           d="m 688.93,235.74 c 0,5.9592 -5.8335,10.79 -13.029,10.79 -7.1955,0 -13.029,-4.8309 -13.029,-10.79 0,-5.9591 5.8335,-10.79 13.029,-10.79 7.1955,0 13.029,4.8309 13.029,10.79 z"
           id="path6042" />
        <path
           d="m 674.89,240.15 c 20.766,-8.2792 42.866,-31.233 62.297,-24.837 l 3.2574,-4.4789 -3.6645,-4.0717 c -12.413,-11.005 -43.16,14.658 -64.74,21.987 l -1.2215,5.7004 z"
           fill="#2b1100"
           id="path6044" />
        <path
           d="m 674.89,240.55 c 20.766,-8.2792 42.866,-31.233 62.297,-24.837 l 3.2574,-4.4789 -3.6645,-4.0717 c -12.413,-11.005 -43.16,14.658 -64.74,21.987 l -1.2215,5.7004 z"
           fill="url(#f)"
           id="path6046"
           style="fill:url(#linearGradient7825)" />
        <path
           d="m 675.29,240.15 c 20.766,-8.2792 42.866,-31.233 62.297,-24.837 l 3.2574,-4.4789 -3.6645,-4.0717 c -12.413,-11.005 -43.16,14.658 -64.74,21.987 l -1.2215,5.7004 z"
           fill="url(#e)"
           id="path6048"
           style="fill:url(#linearGradient7827)" />
      </g>
      <g
         transform="translate(-131.19,101.67)"
         id="g6066">
        <path
           transform="matrix(0.79688,0,0,1,134.65,0)"
           d="m 688.93,235.74 c 0,5.9592 -5.8335,10.79 -13.029,10.79 -7.1955,0 -13.029,-4.8309 -13.029,-10.79 0,-5.9591 5.8335,-10.79 13.029,-10.79 7.1955,0 13.029,4.8309 13.029,10.79 z"
           opacity="0.8006"
           id="path6052" />
        <path
           transform="matrix(0.51563,0,0,0.67925,324.54,75.208)"
           d="m 688.93,235.74 c 0,5.9592 -5.8335,10.79 -13.029,10.79 -7.1955,0 -13.029,-4.8309 -13.029,-10.79 0,-5.9591 5.8335,-10.79 13.029,-10.79 7.1955,0 13.029,4.8309 13.029,10.79 z"
           id="path6054" />
        <path
           transform="matrix(0.79688,0,0,1,197.55,-25.041)"
           d="m 688.93,235.74 c 0,5.9592 -5.8335,10.79 -13.029,10.79 -7.1955,0 -13.029,-4.8309 -13.029,-10.79 0,-5.9591 5.8335,-10.79 13.029,-10.79 7.1955,0 13.029,4.8309 13.029,10.79 z"
           opacity="0.8006"
           id="path6056" />
        <path
           transform="matrix(0.51563,0,0,0.67925,387.45,50.167)"
           d="m 688.93,235.74 c 0,5.9592 -5.8335,10.79 -13.029,10.79 -7.1955,0 -13.029,-4.8309 -13.029,-10.79 0,-5.9591 5.8335,-10.79 13.029,-10.79 7.1955,0 13.029,4.8309 13.029,10.79 z"
           id="path6058" />
        <path
           d="m 674.89,240.15 c 20.766,-8.2792 42.866,-31.233 62.297,-24.837 l 3.2574,-4.4789 -3.6645,-4.0717 c -12.413,-11.005 -43.16,14.658 -64.74,21.987 l -1.2215,5.7004 z"
           fill="#2b1100"
           id="path6060" />
        <path
           d="m 674.89,240.55 c 20.766,-8.2792 42.866,-31.233 62.297,-24.837 l 3.2574,-4.4789 -3.6645,-4.0717 c -12.413,-11.005 -43.16,14.658 -64.74,21.987 l -1.2215,5.7004 z"
           fill="url(#f)"
           id="path6062"
           style="fill:url(#linearGradient7829)" />
        <path
           d="m 675.29,240.15 c 20.766,-8.2792 42.866,-31.233 62.297,-24.837 l 3.2574,-4.4789 -3.6645,-4.0717 c -12.413,-11.005 -43.16,14.658 -64.74,21.987 l -1.2215,5.7004 z"
           fill="url(#e)"
           id="path6064"
           style="fill:url(#linearGradient7831)" />
      </g>
      <g
         transform="translate(-151.92,55.605)"
         id="g6082">
        <path
           transform="matrix(0.79688,0,0,1,134.65,0)"
           d="m 688.93,235.74 c 0,5.9592 -5.8335,10.79 -13.029,10.79 -7.1955,0 -13.029,-4.8309 -13.029,-10.79 0,-5.9591 5.8335,-10.79 13.029,-10.79 7.1955,0 13.029,4.8309 13.029,10.79 z"
           opacity="0.8006"
           id="path6068" />
        <path
           transform="matrix(0.51563,0,0,0.67925,324.54,75.208)"
           d="m 688.93,235.74 c 0,5.9592 -5.8335,10.79 -13.029,10.79 -7.1955,0 -13.029,-4.8309 -13.029,-10.79 0,-5.9591 5.8335,-10.79 13.029,-10.79 7.1955,0 13.029,4.8309 13.029,10.79 z"
           id="path6070" />
        <path
           transform="matrix(0.79688,0,0,1,197.55,-25.041)"
           d="m 688.93,235.74 c 0,5.9592 -5.8335,10.79 -13.029,10.79 -7.1955,0 -13.029,-4.8309 -13.029,-10.79 0,-5.9591 5.8335,-10.79 13.029,-10.79 7.1955,0 13.029,4.8309 13.029,10.79 z"
           opacity="0.8006"
           id="path6072" />
        <path
           transform="matrix(0.51563,0,0,0.67925,387.45,50.167)"
           d="m 688.93,235.74 c 0,5.9592 -5.8335,10.79 -13.029,10.79 -7.1955,0 -13.029,-4.8309 -13.029,-10.79 0,-5.9591 5.8335,-10.79 13.029,-10.79 7.1955,0 13.029,4.8309 13.029,10.79 z"
           id="path6074" />
        <path
           d="m 674.89,240.15 c 20.766,-8.2792 42.866,-31.233 62.297,-24.837 l 3.2574,-4.4789 -3.6645,-4.0717 c -12.413,-11.005 -43.16,14.658 -64.74,21.987 l -1.2215,5.7004 z"
           fill="#2b1100"
           id="path6076" />
        <path
           d="m 674.89,240.55 c 20.766,-8.2792 42.866,-31.233 62.297,-24.837 l 3.2574,-4.4789 -3.6645,-4.0717 c -12.413,-11.005 -43.16,14.658 -64.74,21.987 l -1.2215,5.7004 z"
           fill="url(#f)"
           id="path6078"
           style="fill:url(#linearGradient7833)" />
        <path
           d="m 675.29,240.15 c 20.766,-8.2792 42.866,-31.233 62.297,-24.837 l 3.2574,-4.4789 -3.6645,-4.0717 c -12.413,-11.005 -43.16,14.658 -64.74,21.987 l -1.2215,5.7004 z"
           fill="url(#e)"
           id="path6080"
           style="fill:url(#linearGradient7835)" />
      </g>
      <g
         transform="translate(-173.8,11.843)"
         id="g6098"
         style="display:inline">
        <path
           transform="matrix(0.79688,0,0,1,134.65,0)"
           d="m 688.93,235.74 c 0,5.9592 -5.8335,10.79 -13.029,10.79 -7.1955,0 -13.029,-4.8309 -13.029,-10.79 0,-5.9591 5.8335,-10.79 13.029,-10.79 7.1955,0 13.029,4.8309 13.029,10.79 z"
           opacity="0.8006"
           id="path6084" />
        <path
           transform="matrix(0.51563,0,0,0.67925,324.54,75.208)"
           d="m 688.93,235.74 c 0,5.9592 -5.8335,10.79 -13.029,10.79 -7.1955,0 -13.029,-4.8309 -13.029,-10.79 0,-5.9591 5.8335,-10.79 13.029,-10.79 7.1955,0 13.029,4.8309 13.029,10.79 z"
           id="path6086" />
        <path
           transform="matrix(0.79688,0,0,1,197.55,-25.041)"
           d="m 688.93,235.74 c 0,5.9592 -5.8335,10.79 -13.029,10.79 -7.1955,0 -13.029,-4.8309 -13.029,-10.79 0,-5.9591 5.8335,-10.79 13.029,-10.79 7.1955,0 13.029,4.8309 13.029,10.79 z"
           opacity="0.8006"
           id="path6088" />
        <path
           transform="matrix(0.51563,0,0,0.67925,387.45,50.167)"
           d="m 688.93,235.74 c 0,5.9592 -5.8335,10.79 -13.029,10.79 -7.1955,0 -13.029,-4.8309 -13.029,-10.79 0,-5.9591 5.8335,-10.79 13.029,-10.79 7.1955,0 13.029,4.8309 13.029,10.79 z"
           id="path6090" />
        <path
           d="m 674.89,240.15 c 20.766,-8.2792 42.866,-31.233 62.297,-24.837 l 3.2574,-4.4789 -3.6645,-4.0717 c -12.413,-11.005 -43.16,14.658 -64.74,21.987 l -1.2215,5.7004 z"
           fill="#2b1100"
           id="path6092" />
        <path
           d="m 674.89,240.55 c 20.766,-8.2792 42.866,-31.233 62.297,-24.837 l 3.2574,-4.4789 -3.6645,-4.0717 c -12.413,-11.005 -43.16,14.658 -64.74,21.987 l -1.2215,5.7004 z"
           fill="url(#f)"
           id="path6094"
           style="fill:url(#f)" />
        <path
           d="m 675.29,240.15 c 20.766,-8.2792 42.866,-31.233 62.297,-24.837 l 3.2574,-4.4789 -3.6645,-4.0717 c -12.413,-11.005 -43.16,14.658 -64.74,21.987 l -1.2215,5.7004 z"
           fill="url(#e)"
           id="path6096"
           style="fill:url(#e)" />
      </g>
      <path
         d="m 231.53,73.045 c -16.869,3.2428 40.073,107.63 63.42,110.82 0.67722,0.0926 1.3884,-0.24977 1.9443,0.0174 42.211,20.29 226.69,-40.256 226.69,-40.256 -63.794,8.5052 -123.06,-20.44 -226.37,-81.938 -3.6688,-2.1839 -8.3091,-2.5451 -12.558,-3.8033 -16.216,-4.683 -43.01,-16.64 -53.126,15.162 z"
         fill="url(#q)"
         id="path6100"
         style="display:inline;fill:url(#q)" />
      <path
         d="m 262.52,438.56 44.876,-19.503 -6.6015,-41.165 -35.424,13.029 z"
         fill="url(#a)"
         id="path6102"
         style="display:inline;fill:url(#linearGradient7837)" />
      <path
         d="m 415.09,180.61 c 30.838,71.185 52.725,141.47 52.976,209.6 42.303,5.5219 82.649,-2.6594 120.35,-29.367 -25.493,-62.547 -58.683,-123.81 -93.284,-184.84 -30.496,-21.361 -53.627,1.4696 -80.04,4.6066 z"
         fill="url(#a)"
         id="path6112"
         style="display:inline;fill:url(#linearGradient7839)" />
      <path
         d="m 530.26,143.18 124.95,190.6 -53.552,21.881 c -23.797,-61.613 -56.051,-123.23 -96.739,-184.84 -13.624,-30.057 14.277,-20.895 25.336,-27.64 z"
         fill="url(#a)"
         id="path6114"
         style="display:inline;fill:url(#linearGradient7841)" />
      <path
         d="m 308.46,376.94 c 6.6971,-64.741 109.66,34.745 164.5,52.118 5.69,14.882 129.59,-41.164 202.77,-66.776 15.571,27.791 37.092,52.013 63.519,73.291 -102.91,2.3486 -175.86,51.948 -222.32,143.32 -52.962,-13.013 -94.187,-35.213 -116.37,-71.628 -27.273,-44.762 -56.646,-90.134 -92.097,-130.33 z"
         fill="url(#a)"
         id="path6118"
         style="display:inline;fill:url(#linearGradient7843)" />
      <path
         d="m 211.55,124.49 -4.8861,38.274 c 10.214,24.877 24.281,47.545 30.432,74.245 6.8045,29.533 2.3515,65.923 16.799,99.21 l 35.017,25.245 c 28.06,-103.73 98.416,4.0179 148.21,8.9578 -5.6085,-51.575 -20.745,-103.15 -41.531,-154.72 -118.96,53.133 -149.45,-22.013 -184.04,-91.206 z"
         fill="url(#a)"
         id="path6120"
         style="display:inline;fill:url(#linearGradient7845)" />
      <path
         d="m 548.69,596.81 c 35.554,-100.4 116.34,-132.12 210.1,-144.14 33.95,48.987 86.925,88.461 89.578,153.1 -22.53,17.945 -45.06,26.122 -67.59,33.388 l -35.017,0.81434 c -68.837,-4.9455 -132.31,-25.979 -197.07,-43.16 z"
         fill="url(#a)"
         id="path6122"
         style="fill:url(#linearGradient7847)" />
      <path
         d="m 221.32,68.302 c -15.473,64.469 -71.263,128.94 -46.417,193.41 17.102,24.293 33.244,50.506 56.597,62.297 -5.0738,-13.565 -8.6617,-27.315 -9.2993,-41.954 -0.6264,-14.381 -7.1403,-28.04 -12.99,-42.059 -9.1271,-24.436 -26.729,-46.224 -20.057,-75.598 z"
         fill="url(#a)"
         id="path6124"
         style="display:inline;fill:url(#linearGradient7849)" />
      <path
         d="m 170.02,300.19 -1.6287,52.118 c 29.54,49.049 63.083,63.403 95.685,85.913 l 2.443,-49.268 z"
         fill="url(#a)"
         id="path6126"
         style="display:inline;fill:url(#linearGradient7851)" />
      <path
         d="m 548.56,596.75 c 35.554,-100.4 116.34,-132.12 210.1,-144.14 33.95,48.987 86.925,88.461 89.578,153.1 -22.53,17.945 -45.06,26.122 -67.59,33.388 l -35.017,0.81434 c -68.837,-4.9455 -132.31,-25.979 -197.07,-43.16 z"
         fill="url(#a)"
         id="path6128"
         style="display:inline;fill:url(#linearGradient7853)" />
      <path
         d="m 309.11,378.94 c 6.6971,-64.741 109.66,34.745 164.5,52.118 5.69,14.882 129.59,-41.164 202.77,-66.776 15.571,27.791 37.092,52.013 63.519,73.291 -102.91,2.3486 -175.86,51.948 -222.32,143.32 -52.962,-13.013 -94.187,-35.213 -116.37,-71.628 -27.273,-44.762 -56.646,-90.134 -92.097,-130.33 z"
         fill="url(#a)"
         id="path6130"
         style="fill:url(#linearGradient7855)" />
      <path
         d="m 211.47,125.02 -4.886,38.274 c 10.214,24.877 24.281,47.545 30.432,74.245 6.8045,29.533 2.3515,65.923 16.799,99.21 l 35.017,25.245 c 28.06,-103.73 98.416,4.0179 148.21,8.9578 -5.6085,-51.575 -20.745,-103.15 -41.532,-154.72 -118.96,53.133 -149.45,-22.013 -184.04,-91.206 z"
         fill="url(#a)"
         id="path6132"
         style="fill:url(#linearGradient7857)" />
      <path
         d="m 223.3,70.61 c -15.473,64.469 -71.263,128.94 -46.418,193.41 17.102,24.293 33.244,50.506 56.597,62.297 -5.0738,-13.565 -8.6617,-27.315 -9.2993,-41.954 -0.6264,-14.381 -7.1403,-28.04 -12.99,-42.059 -9.1271,-24.436 -26.729,-46.224 -20.057,-75.598 z"
         fill="url(#a)"
         id="path6134"
         style="fill:url(#linearGradient7859)" />
      <path
         d="m 412.5,181.43 c 30.838,71.185 52.725,141.47 52.976,209.6 42.303,5.5219 82.649,-2.6594 120.35,-29.367 -25.493,-62.547 -58.683,-123.81 -93.284,-184.84 -30.496,-21.361 -53.627,1.4696 -80.04,4.6066 z"
         fill="url(#a)"
         id="path6136"
         style="fill:url(#linearGradient7861)" />
      <path
         d="m 527.2,138.29 124.95,190.6 -53.552,21.881 c -23.798,-61.613 -56.051,-123.23 -96.739,-184.84 -13.624,-30.057 14.277,-20.895 25.336,-27.64 z"
         fill="url(#a)"
         id="path6138"
         style="display:inline;fill:url(#linearGradient7863)" />
      <path
         d="m 550.86,597.9 c 35.554,-100.4 116.34,-132.12 210.1,-144.14 33.95,48.987 86.925,88.461 89.578,153.1 -22.53,17.945 -45.06,26.122 -67.59,33.388 l -35.017,0.81434 c -68.837,-4.9455 -132.31,-25.979 -197.07,-43.16 z"
         fill="url(#a)"
         id="path6140"
         style="display:inline;fill:url(#linearGradient7865)" />
      <path
         d="m 310.26,376.64 c 6.6971,-64.741 109.66,34.745 164.5,52.118 5.69,14.882 129.59,-41.164 202.77,-66.776 15.571,27.791 37.092,52.013 63.519,73.291 -102.91,2.3486 -175.86,51.948 -222.32,143.32 -52.962,-13.013 -94.187,-35.213 -116.37,-71.628 -27.273,-44.762 -56.646,-90.134 -92.097,-130.33 z"
         fill="url(#a)"
         id="path6142"
         style="display:inline;fill:url(#linearGradient7867)" />
      <g
         transform="translate(-199.89,-26.237)"
         fill="url(#d)"
         id="g6158"
         style="display:inline;fill:url(#linearGradient7883)">
        <path
           transform="matrix(0.79688,0,0,1,134.65,0)"
           d="m 688.93,235.74 c 0,5.9592 -5.8335,10.79 -13.029,10.79 -7.1955,0 -13.029,-4.8309 -13.029,-10.79 0,-5.9591 5.8335,-10.79 13.029,-10.79 7.1955,0 13.029,4.8309 13.029,10.79 z"
           opacity="0.8006"
           id="path6144"
           style="fill:url(#linearGradient7869)" />
        <path
           transform="matrix(0.51563,0,0,0.67925,324.54,75.208)"
           d="m 688.93,235.74 c 0,5.9592 -5.8335,10.79 -13.029,10.79 -7.1955,0 -13.029,-4.8309 -13.029,-10.79 0,-5.9591 5.8335,-10.79 13.029,-10.79 7.1955,0 13.029,4.8309 13.029,10.79 z"
           id="path6146"
           style="fill:url(#linearGradient7871)" />
        <path
           transform="matrix(0.79688,0,0,1,197.55,-25.041)"
           d="m 688.93,235.74 c 0,5.9592 -5.8335,10.79 -13.029,10.79 -7.1955,0 -13.029,-4.8309 -13.029,-10.79 0,-5.9591 5.8335,-10.79 13.029,-10.79 7.1955,0 13.029,4.8309 13.029,10.79 z"
           opacity="0.8006"
           id="path6148"
           style="fill:url(#linearGradient7873)" />
        <path
           transform="matrix(0.51563,0,0,0.67925,387.45,50.167)"
           d="m 688.93,235.74 c 0,5.9592 -5.8335,10.79 -13.029,10.79 -7.1955,0 -13.029,-4.8309 -13.029,-10.79 0,-5.9591 5.8335,-10.79 13.029,-10.79 7.1955,0 13.029,4.8309 13.029,10.79 z"
           id="path6150"
           style="fill:url(#linearGradient7875)" />
        <path
           d="m 674.89,240.15 c 20.766,-8.2792 42.866,-31.233 62.297,-24.837 l 3.2574,-4.4789 -3.6645,-4.0717 c -12.413,-11.005 -43.16,14.658 -64.74,21.987 l -1.2215,5.7004 z"
           id="path6152"
           style="fill:url(#linearGradient7877)" />
        <path
           d="m 674.89,240.55 c 20.766,-8.2792 42.866,-31.233 62.297,-24.837 l 3.2574,-4.4789 -3.6645,-4.0717 c -12.413,-11.005 -43.16,14.658 -64.74,21.987 l -1.2215,5.7004 z"
           id="path6154"
           style="fill:url(#linearGradient7879)" />
        <path
           d="m 675.29,240.15 c 20.766,-8.2792 42.866,-31.233 62.297,-24.837 l 3.2574,-4.4789 -3.6645,-4.0717 c -12.413,-11.005 -43.16,14.658 -64.74,21.987 l -1.2215,5.7004 z"
           id="path6156"
           style="fill:url(#linearGradient7881)" />
      </g>
      <g
         transform="translate(-132.99,104.23)"
         fill="url(#d)"
         id="g6174"
         style="display:inline;fill:url(#linearGradient7899)">
        <path
           transform="matrix(0.79688,0,0,1,134.65,0)"
           d="m 688.93,235.74 c 0,5.9592 -5.8335,10.79 -13.029,10.79 -7.1955,0 -13.029,-4.8309 -13.029,-10.79 0,-5.9591 5.8335,-10.79 13.029,-10.79 7.1955,0 13.029,4.8309 13.029,10.79 z"
           opacity="0.8006"
           id="path6160"
           style="fill:url(#linearGradient7885)" />
        <path
           transform="matrix(0.51563,0,0,0.67925,324.54,75.208)"
           d="m 688.93,235.74 c 0,5.9592 -5.8335,10.79 -13.029,10.79 -7.1955,0 -13.029,-4.8309 -13.029,-10.79 0,-5.9591 5.8335,-10.79 13.029,-10.79 7.1955,0 13.029,4.8309 13.029,10.79 z"
           id="path6162"
           style="fill:url(#linearGradient7887)" />
        <path
           transform="matrix(0.79688,0,0,1,197.55,-25.041)"
           d="m 688.93,235.74 c 0,5.9592 -5.8335,10.79 -13.029,10.79 -7.1955,0 -13.029,-4.8309 -13.029,-10.79 0,-5.9591 5.8335,-10.79 13.029,-10.79 7.1955,0 13.029,4.8309 13.029,10.79 z"
           opacity="0.8006"
           id="path6164"
           style="fill:url(#linearGradient7889)" />
        <path
           transform="matrix(0.51563,0,0,0.67925,387.45,50.167)"
           d="m 688.93,235.74 c 0,5.9592 -5.8335,10.79 -13.029,10.79 -7.1955,0 -13.029,-4.8309 -13.029,-10.79 0,-5.9591 5.8335,-10.79 13.029,-10.79 7.1955,0 13.029,4.8309 13.029,10.79 z"
           id="path6166"
           style="fill:url(#linearGradient7891)" />
        <path
           d="m 674.89,240.15 c 20.766,-8.2792 42.866,-31.233 62.297,-24.837 l 3.2574,-4.4789 -3.6645,-4.0717 c -12.413,-11.005 -43.16,14.658 -64.74,21.987 l -1.2215,5.7004 z"
           id="path6168"
           style="fill:url(#linearGradient7893)" />
        <path
           d="m 674.89,240.55 c 20.766,-8.2792 42.866,-31.233 62.297,-24.837 l 3.2574,-4.4789 -3.6645,-4.0717 c -12.413,-11.005 -43.16,14.658 -64.74,21.987 l -1.2215,5.7004 z"
           id="path6170"
           style="fill:url(#linearGradient7895)" />
        <path
           d="m 675.29,240.15 c 20.766,-8.2792 42.866,-31.233 62.297,-24.837 l 3.2574,-4.4789 -3.6645,-4.0717 c -12.413,-11.005 -43.16,14.658 -64.74,21.987 l -1.2215,5.7004 z"
           id="path6172"
           style="fill:url(#linearGradient7897)" />
      </g>
      <g
         transform="translate(-153.72,58.16)"
         fill="url(#d)"
         id="g6190"
         style="display:inline;fill:url(#linearGradient7915)">
        <path
           transform="matrix(0.79688,0,0,1,134.65,0)"
           d="m 688.93,235.74 c 0,5.9592 -5.8335,10.79 -13.029,10.79 -7.1955,0 -13.029,-4.8309 -13.029,-10.79 0,-5.9591 5.8335,-10.79 13.029,-10.79 7.1955,0 13.029,4.8309 13.029,10.79 z"
           opacity="0.8006"
           id="path6176"
           style="fill:url(#linearGradient7901)" />
        <path
           transform="matrix(0.51563,0,0,0.67925,324.54,75.208)"
           d="m 688.93,235.74 c 0,5.9592 -5.8335,10.79 -13.029,10.79 -7.1955,0 -13.029,-4.8309 -13.029,-10.79 0,-5.9591 5.8335,-10.79 13.029,-10.79 7.1955,0 13.029,4.8309 13.029,10.79 z"
           id="path6178"
           style="fill:url(#linearGradient7903)" />
        <path
           transform="matrix(0.79688,0,0,1,197.55,-25.041)"
           d="m 688.93,235.74 c 0,5.9592 -5.8335,10.79 -13.029,10.79 -7.1955,0 -13.029,-4.8309 -13.029,-10.79 0,-5.9591 5.8335,-10.79 13.029,-10.79 7.1955,0 13.029,4.8309 13.029,10.79 z"
           opacity="0.8006"
           id="path6180"
           style="fill:url(#linearGradient7905)" />
        <path
           transform="matrix(0.51563,0,0,0.67925,387.45,50.167)"
           d="m 688.93,235.74 c 0,5.9592 -5.8335,10.79 -13.029,10.79 -7.1955,0 -13.029,-4.8309 -13.029,-10.79 0,-5.9591 5.8335,-10.79 13.029,-10.79 7.1955,0 13.029,4.8309 13.029,10.79 z"
           id="path6182"
           style="fill:url(#linearGradient7907)" />
        <path
           d="m 674.89,240.15 c 20.766,-8.2792 42.866,-31.233 62.297,-24.837 l 3.2574,-4.4789 -3.6645,-4.0717 c -12.413,-11.005 -43.16,14.658 -64.74,21.987 l -1.2215,5.7004 z"
           id="path6184"
           style="fill:url(#linearGradient7909)" />
        <path
           d="m 674.89,240.55 c 20.766,-8.2792 42.866,-31.233 62.297,-24.837 l 3.2574,-4.4789 -3.6645,-4.0717 c -12.413,-11.005 -43.16,14.658 -64.74,21.987 l -1.2215,5.7004 z"
           id="path6186"
           style="fill:url(#linearGradient7911)" />
        <path
           d="m 675.29,240.15 c 20.766,-8.2792 42.866,-31.233 62.297,-24.837 l 3.2574,-4.4789 -3.6645,-4.0717 c -12.413,-11.005 -43.16,14.658 -64.74,21.987 l -1.2215,5.7004 z"
           id="path6188"
           style="fill:url(#linearGradient7913)" />
      </g>
      <g
         transform="translate(-175.6,14.397)"
         fill="url(#d)"
         id="g6206"
         style="display:inline;fill:url(#d)">
        <path
           transform="matrix(0.79688,0,0,1,134.65,0)"
           d="m 688.93,235.74 c 0,5.9592 -5.8335,10.79 -13.029,10.79 -7.1955,0 -13.029,-4.8309 -13.029,-10.79 0,-5.9591 5.8335,-10.79 13.029,-10.79 7.1955,0 13.029,4.8309 13.029,10.79 z"
           opacity="0.8006"
           id="path6192"
           style="fill:url(#linearGradient7917)" />
        <path
           transform="matrix(0.51563,0,0,0.67925,324.54,75.208)"
           d="m 688.93,235.74 c 0,5.9592 -5.8335,10.79 -13.029,10.79 -7.1955,0 -13.029,-4.8309 -13.029,-10.79 0,-5.9591 5.8335,-10.79 13.029,-10.79 7.1955,0 13.029,4.8309 13.029,10.79 z"
           id="path6194"
           style="fill:url(#linearGradient7919)" />
        <path
           transform="matrix(0.79688,0,0,1,197.55,-25.041)"
           d="m 688.93,235.74 c 0,5.9592 -5.8335,10.79 -13.029,10.79 -7.1955,0 -13.029,-4.8309 -13.029,-10.79 0,-5.9591 5.8335,-10.79 13.029,-10.79 7.1955,0 13.029,4.8309 13.029,10.79 z"
           opacity="0.8006"
           id="path6196"
           style="fill:url(#linearGradient7921)" />
        <path
           transform="matrix(0.51563,0,0,0.67925,387.45,50.167)"
           d="m 688.93,235.74 c 0,5.9592 -5.8335,10.79 -13.029,10.79 -7.1955,0 -13.029,-4.8309 -13.029,-10.79 0,-5.9591 5.8335,-10.79 13.029,-10.79 7.1955,0 13.029,4.8309 13.029,10.79 z"
           id="path6198"
           style="fill:url(#linearGradient7923)" />
        <path
           d="m 674.89,240.15 c 20.766,-8.2792 42.866,-31.233 62.297,-24.837 l 3.2574,-4.4789 -3.6645,-4.0717 c -12.413,-11.005 -43.16,14.658 -64.74,21.987 l -1.2215,5.7004 z"
           id="path6200"
           style="fill:url(#linearGradient7925)" />
        <path
           d="m 674.89,240.55 c 20.766,-8.2792 42.866,-31.233 62.297,-24.837 l 3.2574,-4.4789 -3.6645,-4.0717 c -12.413,-11.005 -43.16,14.658 -64.74,21.987 l -1.2215,5.7004 z"
           id="path6202"
           style="fill:url(#linearGradient7927)" />
        <path
           d="m 675.29,240.15 c 20.766,-8.2792 42.866,-31.233 62.297,-24.837 l 3.2574,-4.4789 -3.6645,-4.0717 c -12.413,-11.005 -43.16,14.658 -64.74,21.987 l -1.2215,5.7004 z"
           id="path6204"
           style="fill:url(#linearGradient7929)" />
      </g>
      <path
         d="m 229.72,75.6 c -16.869,3.2428 40.073,107.63 63.42,110.82 0.67722,0.0926 1.3884,-0.24977 1.9443,0.0174 42.211,20.29 226.69,-40.256 226.69,-40.256 -63.794,8.5052 -123.06,-20.44 -226.37,-81.938 -3.6688,-2.1839 -8.3091,-2.5451 -12.558,-3.8033 -16.216,-4.683 -43.01,-16.64 -53.126,15.162 z"
         fill="url(#a)"
         id="path6208"
         style="display:inline;fill:url(#linearGradient7931)" />
      <path
         id="path5994-9"
         style="fill:none;stroke:#000000;stroke-width:3;stroke-miterlimit:4;stroke-dasharray:none"
         d="m 278.82031,-82.082031 c -9.53603,-0.07573 -19.81353,2.150082 -20.29687,18.539062 -3.75062,10.804414 -3.17514,1.87496 -3.84981,12.755879 -2.71926,13.719064 -4.2175,26.760465 -4.7461,39.265625 -3.70128,23.622519 -6.39338,45.298837 5.21505,64.831249 -0.28608,6.679594 2.2752,14.191472 4.15097,23.312697 1.29449,1.55473 1.03932,4.983008 2.23368,6.242819 l 6.95508,29.73438 c 14.68159,13.28301 38.6306,25.90427 69.142,33.7293 5.16473,-3.49266 6.51696,-4.64783 20.64117,-15.95387 1.69201,0.97341 3.35437,1.97866 4.9629,3.04492 0.63114,0.41838 1.25817,0.83989 1.88281,1.26172 12.08496,8.16115 23.82734,15.76733 33.00723,25.10821 12.50994,12.72942 23.88828,24.76153 36.61718,33.92187 0.79092,0.56919 1.06219,1.79736 1.96875,2.17773 9.60708,4.03131 19.4835,8.12292 30.95957,10.38399 28.47562,6.02617 62.16381,7.08588 96.92774,6.92383 27.04139,-0.12576 55.02557,-0.4729 80.61718,-5.10547 42.34509,-12.32641 74.25893,-26.16278 61.73633,-46.43555 l -0.24609,-0.11914 c -0.0526,-0.0899 -0.10384,-0.17942 -0.1582,-0.26953 1.14643,-3.86237 0.52974,-7.98007 -2.20313,-12.4043 -2.48641,-3.68978 -5.16978,-7.18057 -8.00781,-10.52148 C 660.85251,95.670844 626.31379,79.338801 595.7811,61.736431 585.20696,53.873895 575.63921,46.653895 566.97641,40.015728 c -0.73213,-0.718037 -1.46031,-1.440541 -2.17578,-2.175781 -0.1123,0.07646 -0.23688,0.165296 -0.34961,0.242187 -6.3292,-4.865592 -12.13471,-9.394726 -17.56445,-13.68164 l -1.91992,-1.716797 0.0625,-0.04687 -100.54961,-88.700782 -1.33891,1.069531 c -3.1758,3.327601 -10.38076,1.122835 -13.30879,4.584376 l -4.50781,1.11914 c -4.6786,0.878952 -9.48523,1.430077 -14.46289,1.671875 l -14.80078,-0.128906 c -26.18921,-1.623974 -57.66113,-10.198493 -100.1836,-23.517578 -2.56556,-0.803632 -5.40307,-0.29231 -8.1582,-0.414063 -2.62364,-0.0973 -5.71963,-0.377098 -8.89844,-0.402343 z"
         transform="matrix(1.615402,0.43156593,-0.43156593,1.615402,-216.72094,54.545884)"
         sodipodi:nodetypes="ccccccccccssssccccccccccccccccccccccsccc"
         inkscape:label="outline" />
    </g>
  </g>
</svg>
